<svg width="285" height="12" viewBox="0 0 285 12" fill="none" xmlns="http://www.w3.org/2000/svg">
<path d="M0 5.91458L29.5069 5.59004L59.0138 5.34663C68.8522 5.28173 78.6822 5.42777 88.5207 5.18436C93.4356 5.11134 98.3591 4.38923 103.274 4.28375C105.732 4.23507 108.189 4.29998 110.655 4.52716C113.113 4.77057 115.57 5.14379 118.036 5.91458V6.07686C115.579 6.84765 113.121 7.22087 110.655 7.46428C108.198 7.69957 105.74 7.75637 103.274 7.70769C98.3591 7.61033 93.4356 6.88822 88.5207 6.80708C78.6822 6.56367 68.8522 6.70972 59.0138 6.64481L29.5069 6.4014L0 6.07686V5.91458Z" fill="white"/>
<path d="M285.001 6.07722L255.494 6.40176L225.987 6.64517C216.149 6.71008 206.319 6.56403 196.48 6.80744C191.565 6.88046 186.642 7.60257 181.727 7.70805C179.269 7.75673 176.812 7.69182 174.346 7.46464C171.888 7.22123 169.431 6.84801 166.965 6.07722V5.91494C169.422 5.14415 171.88 4.77093 174.346 4.52752C176.803 4.29223 179.261 4.23543 181.727 4.28411C186.642 4.38148 191.565 5.10359 196.48 5.18472C206.319 5.42813 216.149 5.28208 225.987 5.34699L255.494 5.5904L285.001 5.91494V6.07722Z" fill="white"/>
<path d="M140.647 11.3103L136.569 7.65915C135.545 6.74232 135.545 5.25753 136.569 4.3407L140.647 0.68958C141.671 -0.227256 143.327 -0.227256 144.351 0.68958L148.43 4.3407C149.453 5.25753 149.453 6.74232 148.43 7.65915L144.351 11.3103C143.327 12.2271 141.671 12.2271 140.647 11.3103Z" fill="white"/>
<path d="M123.848 8.04867C122.585 6.92088 122.585 5.08721 123.848 3.95131C125.11 2.82352 127.158 2.82352 128.421 3.95131C129.684 5.0791 129.684 6.91277 128.421 8.04867C127.158 9.17646 125.11 9.17646 123.848 8.04867Z" fill="white"/>
<path d="M156.58 8.04867C155.317 6.92088 155.317 5.08721 156.58 3.95131C157.843 2.82352 159.891 2.82352 161.154 3.95131C162.416 5.0791 162.416 6.91277 161.154 8.04867C159.891 9.17646 157.843 9.17646 156.58 8.04867Z" fill="white"/>
</svg>
