<svg width="103" height="110" viewBox="0 0 103 110" fill="none" xmlns="http://www.w3.org/2000/svg">
<path d="M67.3223 11.8881L67.3912 11.8484C67.3753 11.9109 67.37 11.9847 67.3541 12.0529C67.3435 11.9961 67.3276 11.9393 67.3223 11.8881Z" fill="#40114A"/>
<path d="M84.5707 5.81445L84.5124 6.2799L84.4912 6.45374L84.4753 6.62197L84.4647 6.67805L84.4329 6.92479L77.7062 59.6883C73.7678 58.8078 70.5131 58.0003 67.7832 57.0975L84.189 6.98647L84.2049 6.94161L84.2367 6.84067L84.3216 6.59954L84.4276 6.26868L84.5707 5.81445Z" fill="#BC8044"/>
<path d="M74.3833 20.4787L63.5009 55.303H63.3472C57.7655 52.4766 56.0851 48.2596 53.1803 40.0218L46.6657 18.7908L39.8966 41.2275L39.8807 41.2835C38.8418 45.0351 37.7233 47.7549 36.3769 49.7961L36.0112 50.3289C35.9688 50.3849 35.9211 50.4522 35.8734 50.5139L35.5023 50.9906C35.4122 51.1027 35.3274 51.2093 35.2373 51.3158C35.1578 51.4056 35.0835 51.4953 34.9987 51.5738L34.9351 51.6523C34.7284 51.8766 34.5323 52.0729 34.3414 52.2467L34.2354 52.3589C34.1665 52.4206 34.0923 52.4879 34.0287 52.5439L33.9757 52.5888C32.9473 53.5197 31.7176 54.3328 30.2175 55.0955C30.0955 55.1515 29.9683 55.2188 29.8464 55.2749L18.5293 20.7535L46.6392 4.87793L74.3833 20.4787Z" fill="#BC8044"/>
<path d="M6.44904 3.08536L4.81641 3.74192L5.34648 2.19873L6.44904 3.08536Z" fill="#BC8044"/>
<path d="M8.617 2.21136L6.98438 2.86231L7.45084 1.35278L8.617 2.21136Z" fill="#BC8044"/>
<path d="M9.39685 0.38623L8.86678 1.93503L7.69531 1.07646L9.39685 0.38623Z" fill="#BC8044"/>
<path d="M7.10195 1.31909L6.63548 2.823L5.54883 1.94759L7.10195 1.31909Z" fill="#BC8044"/>
<path d="M10.8651 1.29508L9.23242 1.95725L9.7678 0.408447L10.8651 1.29508Z" fill="#BC8044"/>
<path d="M8.84499 6.54922L4.92773 4.0818L6.72469 3.3584L8.84499 6.54922Z" fill="#BC8044"/>
<path d="M9.35963 7.05578L9.35433 7.05015L9.08398 6.63916L9.10519 6.80806L9.11579 6.9094L9.35433 7.06141L9.36493 7.06704L9.35963 7.05578Z" fill="#BC8044"/>
<path d="M10.9599 1.64746L9.44388 6.31873L9.11523 2.39329L10.9599 1.64746Z" fill="#BC8044"/>
<path d="M9.27487 6.74683L9.06284 6.41597L9.03634 6.24213L7.06445 3.22515L8.766 2.5354L9.14235 6.22531L9.25367 6.56738L9.27487 6.74683Z" fill="#BC8044"/>
<path d="M88.7635 3.74192L87.1309 3.08536L88.2228 2.19873L88.7635 3.74192Z" fill="#BC8044"/>
<path d="M86.5858 2.86231L84.9531 2.21136L86.1193 1.35278L86.5858 2.86231Z" fill="#BC8044"/>
<path d="M85.8807 1.07646L84.7145 1.93503L84.1738 0.38623L85.8807 1.07646Z" fill="#BC8044"/>
<path d="M88.0277 1.94759L86.9358 2.823L86.4746 1.31909L88.0277 1.94759Z" fill="#BC8044"/>
<path d="M82.6152 1.64771L84.4599 2.39915L84.1313 6.32459L82.6152 1.64771Z" fill="#BC8044"/>
<path d="M83.8082 0.408447L84.3383 1.95725L82.7109 1.29508L83.8082 0.408447Z" fill="#BC8044"/>
<path d="M84.3388 1.95725L82.7168 1.29508L83.8087 0.408447L84.3388 1.95725Z" fill="#BC8044"/>
<path d="M88.6477 4.08205L84.7305 6.54946L86.8455 3.35864L88.6477 4.08205Z" fill="#BC8044"/>
<path d="M86.1193 1.35278L86.5858 2.86791L84.9531 2.21697L86.1193 1.35278Z" fill="#BC8044"/>
<path d="M88.6477 4.08205L84.7305 6.54946L86.8455 3.35864L88.6477 4.08205Z" fill="#BC8044"/>
<path d="M84.4599 2.39329L84.126 6.31873L82.6152 1.64746L84.4599 2.39329Z" fill="#BC8044"/>
<path d="M86.5112 3.22515L84.5128 6.28138L84.4863 6.45522L84.3008 6.74683L84.3167 6.60103L84.4227 6.27017L84.8044 2.5354L86.5112 3.22515Z" fill="#BC8044"/>
<path d="M46.6016 98.1466L46.6546 98.1128C46.644 98.1634 46.6387 98.2254 46.6228 98.276C46.6175 98.231 46.6069 98.186 46.6016 98.1466Z" fill="#3F1449"/>
<path d="M77.537 64.5951C77.5211 64.6007 77.5052 64.6007 77.4893 64.6063C77.484 64.6063 77.484 64.6063 77.4787 64.6063L16.0801 64.4213C16.3451 64.3652 16.6049 64.3035 16.8646 64.2475C17.119 64.197 17.3735 64.1353 17.6226 64.0792C17.7922 64.04 17.9618 64.0007 18.1315 63.9615C18.4601 63.8886 18.7888 63.81 19.1121 63.7371C23.6443 62.6773 27.323 61.6062 30.3497 60.2996C30.954 60.0416 31.5318 59.7781 32.083 59.4921C33.8853 58.5836 35.4331 57.5518 36.7848 56.3461C36.9332 56.2171 37.0817 56.0825 37.2248 55.9367C37.5163 55.6676 37.792 55.3816 38.0623 55.0844C38.2001 54.9442 38.3326 54.7871 38.4652 54.6357C38.5977 54.4787 38.7249 54.3273 38.8468 54.1703C38.9793 54.0133 39.1012 53.8563 39.2179 53.6936C39.3398 53.5254 39.467 53.3628 39.5783 53.1945C39.7002 53.0263 39.8221 52.8581 39.9335 52.6842C41.7781 49.8972 43.151 46.3867 44.3596 41.8052C44.4338 41.5136 44.5133 41.2276 44.5822 40.9304C44.6511 40.65 44.7253 40.3696 44.7942 40.078C44.9427 39.4723 45.0911 38.8499 45.2342 38.2106C45.7431 35.9675 46.2255 33.5113 46.729 30.8027C51.2188 55.5778 54.8922 59.5986 77.537 64.5951Z" fill="#3F1449"/>
<path d="M25.5838 56.9688C23.543 57.6474 21.1153 58.3091 18.1628 58.9988C17.8659 59.0717 17.5691 59.139 17.2351 59.2119L16.6892 59.3409C16.4771 59.3858 16.2651 59.4362 16.0531 59.4811L15.6661 59.5652L9.11968 6.91388L9.10908 6.81294L9.08788 6.64471L9.08258 6.58863L9.06668 6.4204L9.04547 6.24656L8.97656 5.68018L9.15149 6.22974L9.2628 6.57181L9.34232 6.81855L9.37942 6.91388L9.39532 6.98118L25.5838 56.9688Z" fill="#BC8044"/>
<path d="M34.9186 70.2767C34.9186 70.8431 34.3992 71.3254 33.3602 71.7179C32.3213 72.1105 31.0491 72.3123 29.549 72.3123C28.0383 72.3123 26.1618 72.088 23.9196 71.6338C22.7375 72.3067 21.6509 73.3049 20.6702 74.6227C19.6896 75.9462 18.6347 77.8136 17.511 80.2361C16.3872 82.6587 15.5603 84.2681 15.0355 85.0756C14.5107 85.8831 13.7898 86.6626 12.8781 87.4197C10.461 89.3768 7.95901 90.3525 5.35634 90.3525C3.97285 90.3525 2.83848 90.0329 1.95856 89.388C1.07864 88.7487 0.638672 87.9131 0.638672 86.8925C0.638672 86.3766 0.776492 85.9336 1.05743 85.5691C1.33837 85.199 1.66702 85.0139 2.05397 85.0139C2.67946 85.0139 2.99221 85.3728 2.99221 86.085C2.99221 86.4215 2.89679 86.7131 2.70597 86.9542C2.51514 87.1954 2.2766 87.3187 1.99567 87.3187C1.5451 87.3187 1.31717 87.0776 1.31717 86.5953C1.31717 86.343 1.28006 86.214 1.20055 86.214C1.03623 86.214 0.956718 86.472 0.956718 86.9879C0.956718 87.8402 1.35957 88.5636 2.15999 89.1525C2.9657 89.7413 3.95164 90.0385 5.12841 90.0385C7.70458 90.0385 10.021 88.7655 12.0724 86.2196C13.0318 85.0308 14.2775 83.068 15.7988 80.3315C18.2796 75.8901 20.8769 72.9741 23.5803 71.5721C23.0609 71.4768 22.2816 71.303 21.2427 71.0506C18.799 70.473 16.9279 70.1814 15.6292 70.1814C15.4967 70.1814 15.0885 70.2038 14.4153 70.2431C14.8659 71.1684 15.0938 72.2282 15.0938 73.4171C15.0938 75.7331 14.2881 77.9033 12.682 79.9333C11.0759 81.9633 9.35841 82.9783 7.52965 82.9783C6.76634 82.9783 6.15145 82.7035 5.67439 82.1484C5.19732 81.5932 4.95879 80.881 4.95879 80.0118C4.95879 78.8117 5.37224 77.4827 6.20446 76.0247C7.03668 74.5667 8.11273 73.2937 9.43792 72.2058C10.7631 71.1179 12.2102 70.3552 13.7898 69.9234C13.0318 68.7963 11.9505 68.2355 10.5458 68.2355C9.36371 68.2355 8.16574 68.6112 6.96247 69.3683C5.7539 70.1197 4.69375 71.1459 3.78202 72.4413C3.6495 72.6432 3.55409 72.7441 3.50638 72.7441C3.44807 72.7441 3.41097 72.7105 3.38976 72.6488C3.38976 72.4694 3.78732 71.9478 4.57183 71.0842C6.4642 69.0206 8.44668 67.9832 10.514 67.9832C12.1201 67.9832 13.3393 68.6 14.1768 69.8281C15.343 69.458 16.6787 69.2729 18.1895 69.2729C18.9687 69.2729 19.679 69.3234 20.3257 69.43C21.0095 69.5477 22.6845 69.901 25.3508 70.501C27.5718 69.4412 29.708 68.9084 31.7594 68.9084C33.8638 68.9196 34.9186 69.3739 34.9186 70.2767ZM14.5213 72.6488C14.5213 71.8076 14.3411 71.0282 13.986 70.3104C11.8286 70.6973 9.82487 71.9142 7.96431 73.9554C6.10905 75.9966 5.18142 78.0042 5.18142 79.9838C5.18142 80.7408 5.39345 81.3801 5.82281 81.896C6.25217 82.4119 6.77694 82.6699 7.40243 82.6699C9.02976 82.6699 10.62 81.5708 12.1784 79.3781C13.7421 77.1855 14.5213 74.9424 14.5213 72.6488ZM34.6854 70.3104C34.6854 70.0076 34.4151 69.7496 33.8691 69.5365C33.3284 69.329 32.6393 69.2225 31.8124 69.2225C29.7557 69.2225 27.7573 69.6935 25.8225 70.6412C26.0611 70.6861 26.7025 70.8095 27.7414 71.0226C29.2786 71.3478 30.6462 71.5104 31.8389 71.5104C32.6181 71.5104 33.286 71.3927 33.8479 71.1572C34.4098 70.916 34.6854 70.6356 34.6854 70.3104Z" fill="#3F1449"/>
<path d="M27.6516 84.6653C27.6516 84.7494 27.6039 84.8448 27.5084 84.9513L26.8883 85.8822C25.0754 88.63 23.729 90.0095 22.8438 90.0095C22.3826 90.0095 22.001 89.8301 21.7094 89.4656C21.4179 89.1011 21.2695 88.6468 21.2695 88.1029C21.2695 87.3683 21.6352 86.4037 22.3667 85.2149C23.5117 83.3755 24.0842 82.282 24.0842 81.9343C24.0842 81.525 23.888 81.3175 23.4905 81.3175C22.9127 81.3175 22.1229 81.9399 21.121 83.1793C20.1563 84.3681 18.8364 86.6224 17.1508 89.9366C16.8645 89.8749 16.6154 89.8413 16.414 89.8413C16.2019 89.8413 15.9157 89.8749 15.5605 89.9366L17.6808 85.7364C17.9671 85.1364 18.4124 84.2503 19.0113 83.0839C19.3294 82.5175 20.3047 80.7062 21.9427 77.6556L24.1372 73.5844C24.4234 73.6461 24.6725 73.6797 24.874 73.6797C25.2609 73.6797 25.6267 73.6293 25.9712 73.5227C24.9694 75.2779 23.4799 77.908 21.4974 81.4128C21.4391 81.5194 20.6917 82.8764 19.2605 85.4841C21.068 82.5512 22.4992 81.082 23.5488 81.082C23.9622 81.082 24.3174 81.2782 24.6089 81.6652C24.9058 82.0521 25.0489 82.5288 25.0489 83.0839C25.0489 83.8073 24.6248 84.856 23.7767 86.2243C22.8332 87.7496 22.3614 88.7085 22.3614 89.0955C22.3614 89.5497 22.5681 89.774 22.9816 89.774C23.7343 89.774 24.9747 88.445 26.7133 85.7925L27.1639 85.1139L27.4236 84.7663C27.4713 84.6597 27.5296 84.6092 27.5986 84.6092C27.6304 84.598 27.6516 84.6205 27.6516 84.6653Z" fill="#3F1449"/>
<path d="M34.9561 84.7102C34.9561 84.7439 34.8713 84.8785 34.6964 85.1196L34.0762 85.972C32.0831 88.6637 30.371 90.004 28.9503 90.004C28.2772 90.004 27.71 89.7404 27.2541 89.2077C26.7982 88.6749 26.5703 88.0132 26.5703 87.2113C26.5703 85.3159 27.7789 83.6504 30.196 82.2092C31.4682 81.4521 32.5019 81.0708 33.297 81.0708C33.6415 81.0708 33.9384 81.183 34.1875 81.4073C34.4313 81.6316 34.5532 81.912 34.5532 82.2372C34.5532 82.9943 34.1027 83.6392 33.1963 84.1719C32.2898 84.7046 30.7791 85.1981 28.6641 85.6636C28.0068 86.7459 27.6835 87.6543 27.6835 88.3777C27.6835 89.2806 28.134 89.7348 29.0246 89.7348C30.5459 89.7348 32.4117 88.1142 34.6169 84.8673C34.7335 84.699 34.8289 84.6149 34.9031 84.6149C34.9349 84.6261 34.9561 84.6598 34.9561 84.7102ZM33.7369 81.783C33.7369 81.4465 33.5673 81.2783 33.2334 81.2783C32.7245 81.2783 32.0513 81.6652 31.2191 82.4391C30.3869 83.213 29.5705 84.2168 28.7701 85.4449C30.1536 85.0579 31.3304 84.5028 32.2898 83.7962C33.2546 83.084 33.7369 82.4167 33.7369 81.783Z" fill="#3F1449"/>
<path d="M61.4914 72.1263C61.4914 72.8105 61.0567 73.5227 60.1927 74.2573C60.9825 75.5303 61.3747 76.7023 61.3747 77.779C61.3747 78.0425 61.3005 78.1715 61.1574 78.1715C61.0408 78.1715 60.9825 77.9977 60.9825 77.65C60.9825 76.5957 60.6432 75.5303 59.97 74.448C58.5759 75.5863 56.6783 76.5677 54.277 77.392C51.8758 78.2164 49.7449 78.6313 47.8896 78.6313C47.6299 78.6313 47.402 78.6201 47.2111 78.5977C45.6739 80.9417 44.9 83.2073 44.9 85.3831C44.9 86.8692 45.3241 88.0412 46.1616 88.9048C47.0044 89.7684 48.1494 90.2002 49.6018 90.2002C52.3423 90.2002 54.7912 88.7646 56.9327 85.8934C58.2314 84.155 58.8834 82.5119 58.8834 80.953C58.8834 80.1342 58.6555 79.4781 58.2049 78.9959C57.7543 78.5136 57.1553 78.2724 56.4026 78.2724C55.2047 78.2724 53.9113 78.9622 52.5331 80.3473C51.1549 81.7324 50.4658 83.0222 50.4658 84.2223C50.4658 84.3288 50.4923 84.3793 50.5506 84.3793C50.5983 84.3681 50.6354 84.3457 50.6672 84.3176C50.927 84.0653 51.1602 83.9363 51.3828 83.9363C51.8705 83.9363 52.1143 84.2279 52.1143 84.8055C52.1143 85.585 51.7698 85.9719 51.0754 85.9719C50.4393 85.9719 50.1212 85.5513 50.1212 84.7102C50.1212 83.2073 50.821 81.7156 52.2151 80.2352C53.6091 78.7547 55.0244 78.0201 56.4609 78.0201C58.3109 78.0201 59.2332 79.1304 59.2332 81.3511C59.2332 83.6447 58.2314 85.7364 56.2224 87.6262C54.2187 89.516 51.9924 90.4581 49.5488 90.4581C47.8472 90.4581 46.416 89.8301 45.2552 88.5795C44.0943 87.329 43.5165 85.7812 43.5165 83.9419C43.5165 82.153 44.089 80.3193 45.234 78.4351C41.0676 77.5939 38.9844 75.7938 38.9844 73.0404C38.9844 71.3973 39.7583 70.0234 41.3114 68.9187C42.8592 67.814 44.7887 67.2588 47.0998 67.2588C50.3227 67.2588 53.5826 68.4308 56.8744 70.7805C57.4416 70.6515 58.0247 70.5898 58.6183 70.5898C60.5319 70.5786 61.4914 71.0945 61.4914 72.1263ZM56.4716 70.8309C53.5455 68.9804 50.434 68.0551 47.1316 68.0551C45.0908 68.0551 43.3098 68.5822 41.7832 69.6309C40.2566 70.6851 39.4932 71.9132 39.4932 73.3264C39.4932 75.8387 41.4439 77.4649 45.3559 78.2052C47.7783 74.5096 51.4835 72.0534 56.4716 70.8309ZM59.8587 74.2236C59.1166 73.0572 58.1201 72.0198 56.8691 71.1169C55.0669 71.6553 53.3123 72.575 51.6002 73.8872C49.888 75.1938 48.4833 76.6854 47.3861 78.3622C49.395 78.3622 51.6214 77.9584 54.0597 77.1565C56.5034 76.349 58.4381 75.3732 59.8587 74.2236ZM61.2634 72.1263C61.2634 71.2627 60.4948 70.8309 58.9523 70.8309C58.4699 70.8309 57.8975 70.9038 57.2349 71.0496C58.3798 71.9132 59.3287 72.917 60.0814 74.0666C60.8659 73.332 61.2634 72.6815 61.2634 72.1263Z" fill="#3F1449"/>
<path d="M70.2158 84.6934C70.2158 84.9178 69.5108 85.9384 68.1061 87.7609C66.9665 89.2582 66.0706 90.004 65.4186 90.004C64.9734 90.004 64.6129 89.8246 64.3373 89.4601C64.0563 89.0955 63.9185 88.6413 63.9185 88.0974C63.9185 87.531 64.0723 86.9141 64.3797 86.2524C63.415 87.7272 62.6835 88.7198 62.1693 89.2357C61.6604 89.7517 61.1621 90.0096 60.6851 90.0096C60.1762 90.0096 59.7468 89.7685 59.4023 89.2918C59.0577 88.8152 58.8828 88.2095 58.8828 87.4861C58.8828 85.4673 60.1868 83.6784 62.7948 82.1195C63.9397 81.4241 64.8621 81.0764 65.5671 81.0764C66.1607 81.0764 66.4629 81.3905 66.4629 82.0241C66.4629 82.2036 66.4258 82.4391 66.3463 82.7363L67.0831 81.2054C67.3693 81.2783 67.6291 81.3176 67.8464 81.3176C68.1061 81.3176 68.4401 81.2783 68.8588 81.2054L66.3039 85.8318C65.4186 87.4525 64.9734 88.5179 64.9734 89.0339C64.9734 89.5273 65.1642 89.7741 65.5353 89.7741C65.9222 89.7741 66.5371 89.2918 67.3852 88.3273C68.2333 87.3627 69.0974 86.1739 69.972 84.7607C70.0303 84.6542 70.0833 84.6037 70.131 84.6037C70.1893 84.5981 70.2158 84.6318 70.2158 84.6934ZM66.2403 82.0858C66.2403 81.5699 66.0229 81.312 65.5936 81.312C64.7083 81.312 63.5475 82.2597 62.1057 84.1551C60.6692 86.0505 59.9483 87.5814 59.9483 88.7479C59.9483 89.432 60.2292 89.7741 60.7858 89.7741C61.4484 89.7741 62.5986 88.5684 64.2366 86.1627C65.5724 84.1775 66.2403 82.8204 66.2403 82.0858Z" fill="#3F1449"/>
<path d="M75.1186 78.5697C75.1186 78.9903 74.5197 79.8258 73.3164 81.0708C73.2581 81.396 73.2316 81.682 73.2316 81.9231C73.2316 82.5344 73.486 83.4989 73.9949 84.828C74.2546 85.4897 74.3818 86.0504 74.3818 86.4991C74.3818 87.4468 73.9631 88.2655 73.1202 88.9609C72.2774 89.6562 71.2809 90.0039 70.1253 90.0039C69.468 90.0039 68.9486 89.802 68.5616 89.3983C68.1693 88.9945 67.9785 88.4506 67.9785 87.7664C67.9785 86.9757 68.2383 86.2075 68.7524 85.4616C69.2666 84.7158 69.7967 84.3401 70.348 84.3401C70.4434 84.3401 70.5282 84.3625 70.6077 84.4018L71.7633 82.854C72.1078 82.3998 72.569 81.7773 73.1468 80.9754C73.3111 80.2408 73.5602 79.6071 73.8995 79.08C74.2387 78.5529 74.5674 78.2893 74.896 78.2893C75.0391 78.2949 75.1186 78.3902 75.1186 78.5697ZM73.1097 84.7999C73.1097 84.4859 73.0991 84.1718 73.0831 83.8634C73.0619 83.555 73.0566 83.1064 73.0566 82.5288C73.0566 82.0577 73.0778 81.6596 73.115 81.3455C72.5743 82.0914 71.7951 83.1456 70.7773 84.5027C70.9575 84.6709 71.053 84.8784 71.053 85.1196C71.053 85.742 70.5865 86.1626 69.6536 86.3813C69.2772 86.4766 68.9539 86.7009 68.6782 87.0542C68.4026 87.4075 68.2648 87.7776 68.2648 88.1646C68.2648 88.5851 68.4026 88.9384 68.6835 89.2244C68.9592 89.5104 69.309 89.6506 69.7225 89.6506C70.5282 89.6506 71.2968 89.1403 72.023 88.1141C72.7492 87.0767 73.1097 85.9775 73.1097 84.7999Z" fill="#3F1449"/>
<path d="M81.3271 81.0706L81.2105 81.3061H79.3181L76.1005 87.3177C75.703 88.0411 75.5069 88.6243 75.5069 89.0561C75.5069 89.5271 75.7348 89.7683 76.1854 89.7683C77.06 89.7683 78.5389 88.0972 80.6221 84.7549C80.691 84.6484 80.7493 84.5979 80.797 84.5979C80.8553 84.5979 80.8818 84.6316 80.8818 84.6932C80.8712 84.7269 80.8235 84.811 80.7387 84.9456L80.1185 85.8765C78.3056 88.6243 76.9434 90.0038 76.0316 90.0038C75.5811 90.0038 75.1994 89.8243 74.8973 89.4655C74.5951 89.1066 74.4414 88.6579 74.4414 88.1252C74.4414 87.4915 74.6958 86.7064 75.2047 85.7587L77.6271 81.3061H76.1535L76.2967 81.0706H77.7385L79.4241 78.0088C79.7103 78.0929 79.986 78.1378 80.2457 78.1378C80.5161 78.1378 80.7917 78.0985 81.0832 78.0088L79.4241 81.0706H81.3271Z" fill="#3F1449"/>
<path d="M88.4558 73.5115C84.4166 80.8633 82.0577 85.1924 81.3899 86.4822C80.722 87.7776 80.388 88.6356 80.388 89.0562C80.388 89.5273 80.5735 89.7684 80.9393 89.7684C81.7503 89.7684 83.2345 88.0973 85.3919 84.755C85.4396 84.6485 85.4979 84.598 85.5669 84.598C85.604 84.6092 85.6252 84.6429 85.6252 84.6934C85.6252 84.755 85.5775 84.8392 85.482 84.9457L84.8619 85.8766C83.0384 88.6244 81.6973 90.0039 80.8333 90.0039C80.4198 90.0039 80.0806 89.8301 79.8155 89.488C79.5505 89.1459 79.418 88.7141 79.418 88.187C79.418 87.6094 79.5399 87.0486 79.7837 86.5047C80.0276 85.9607 80.8651 84.3961 82.2857 81.811C84.0296 78.6426 85.4926 75.9004 86.6853 73.5732C86.9716 73.6573 87.2313 73.7021 87.4486 73.7021C87.8091 73.7021 88.1483 73.6405 88.4558 73.5115Z" fill="#3F1449"/>
<path d="M92.8936 84.7102C92.8936 84.7439 92.8088 84.8785 92.6339 85.1196L92.0137 85.972C90.0206 88.6637 88.3084 90.004 86.8878 90.004C86.2147 90.004 85.6475 89.7404 85.1916 89.2077C84.7357 88.6749 84.5078 88.0132 84.5078 87.2113C84.5078 85.3159 85.7164 83.6504 88.1282 82.2092C89.4004 81.4521 90.4341 81.0708 91.2345 81.0708C91.579 81.0708 91.8759 81.183 92.1197 81.4073C92.3635 81.6316 92.4854 81.912 92.4854 82.2372C92.4854 82.9943 92.0349 83.6392 91.1284 84.1719C90.222 84.7046 88.7113 85.1981 86.5963 85.6636C85.939 86.7459 85.6157 87.6543 85.6157 88.3777C85.6157 89.2806 86.0662 89.7348 86.9621 89.7348C88.4834 89.7348 90.3492 88.1142 92.5544 84.8673C92.671 84.699 92.7664 84.6149 92.8406 84.6149C92.8777 84.6261 92.8936 84.6598 92.8936 84.7102ZM91.6744 81.783C91.6744 81.4465 91.5048 81.2783 91.1709 81.2783C90.662 81.2783 89.9888 81.6652 89.1566 82.4391C88.3243 83.213 87.508 84.2168 86.7076 85.4449C88.0911 85.0579 89.2679 84.5028 90.2273 83.7962C91.1921 83.084 91.6744 82.4167 91.6744 81.783Z" fill="#3F1449"/>
<path d="M36.267 97.2312C36.267 97.2499 36.2623 97.3642 36.253 97.5742C36.2437 97.7842 36.239 97.9849 36.239 98.1762V98.4072C35.7817 98.3839 34.8763 98.3722 33.523 98.3722C33.3597 98.3722 33.1987 98.3746 33.04 98.3792C32.8813 98.3792 32.774 98.3792 32.718 98.3792H32.648C32.5593 98.3792 32.515 98.3582 32.515 98.3162C32.515 98.2882 32.529 98.2719 32.557 98.2672C32.571 98.2672 32.6597 98.2602 32.823 98.2462C32.9443 98.2369 33.0167 98.2112 33.04 98.1692C33.068 98.1272 33.082 98.0176 33.082 97.8402V93.9062C33.082 93.7709 33.061 93.6916 33.019 93.6682C32.9817 93.6402 32.8557 93.6262 32.641 93.6262C32.5663 93.6262 32.529 93.6052 32.529 93.5632C32.529 93.5212 32.5803 93.5002 32.683 93.5002L33.88 93.5072C33.922 93.5072 34.1857 93.5049 34.671 93.5002C35.1563 93.5002 35.483 93.5002 35.651 93.5002C35.791 93.5002 35.9193 93.4909 36.036 93.4722C36.0453 93.6729 36.0663 93.9506 36.099 94.3052L36.127 94.6062C36.1317 94.6296 36.134 94.6599 36.134 94.6972C36.134 94.7439 36.113 94.7672 36.071 94.7672C36.0197 94.7672 35.9823 94.7089 35.959 94.5922C35.8703 94.1722 35.7257 93.9062 35.525 93.7942C35.3757 93.7102 34.9837 93.6682 34.349 93.6682H33.775V95.7192H33.943C34.4657 95.7192 34.783 95.6796 34.895 95.6002C35.0117 95.5209 35.091 95.2899 35.133 94.9072C35.1423 94.8092 35.168 94.7602 35.21 94.7602C35.2613 94.7602 35.287 94.8022 35.287 94.8862C35.287 94.9702 35.2823 95.0939 35.273 95.2572C35.2637 95.4206 35.259 95.5442 35.259 95.6282C35.259 96.1276 35.2683 96.4706 35.287 96.6572C35.2917 96.7039 35.294 96.7436 35.294 96.7762C35.294 96.8369 35.2683 96.8672 35.217 96.8672C35.1843 96.8672 35.161 96.8486 35.147 96.8112C35.1377 96.7692 35.119 96.6386 35.091 96.4192C35.0537 96.1439 34.9393 95.9736 34.748 95.9082C34.664 95.8802 34.4447 95.8662 34.09 95.8662H33.775V98.2182C34.8017 98.2182 35.4037 98.1972 35.581 98.1552C35.889 98.0852 36.064 97.7866 36.106 97.2592C36.1153 97.1426 36.1457 97.0842 36.197 97.0842C36.2437 97.0842 36.267 97.1332 36.267 97.2312ZM39.6902 97.0002C39.6902 97.4016 39.5362 97.7446 39.2282 98.0292C38.9249 98.3092 38.5586 98.4492 38.1292 98.4492C37.8772 98.4492 37.5762 98.3722 37.2262 98.2182C37.1329 98.1762 37.0629 98.1552 37.0162 98.1552C36.9602 98.1552 36.9252 98.2229 36.9112 98.3582C36.9066 98.4282 36.8762 98.4632 36.8202 98.4632C36.7736 98.4632 36.7502 98.4352 36.7502 98.3792C36.7502 98.3419 36.7526 98.3139 36.7572 98.2952C36.7946 98.0106 36.8132 97.7469 36.8132 97.5042C36.8132 97.4576 36.8086 97.3269 36.7992 97.1122C36.7946 97.0842 36.7922 97.0469 36.7922 97.0002C36.7922 96.9302 36.8202 96.8952 36.8762 96.8952C36.9229 96.8952 36.9556 96.9512 36.9742 97.0632C37.0956 97.8939 37.4899 98.3092 38.1572 98.3092C38.4419 98.3092 38.6612 98.2299 38.8152 98.0712C38.9739 97.9079 39.0532 97.6792 39.0532 97.3852C39.0532 97.1239 38.9762 96.9022 38.8222 96.7202C38.6729 96.5336 38.4139 96.3492 38.0452 96.1672C37.6019 95.9479 37.2939 95.7356 37.1212 95.5302C36.9486 95.3249 36.8622 95.0706 36.8622 94.7672C36.8622 94.3799 36.9859 94.0602 37.2332 93.8082C37.4852 93.5562 37.8026 93.4302 38.1852 93.4302C38.3439 93.4302 38.5632 93.4839 38.8432 93.5912C38.9412 93.6286 39.0136 93.6472 39.0602 93.6472C39.1116 93.6472 39.1442 93.6379 39.1582 93.6192C39.1769 93.6006 39.1932 93.5516 39.2072 93.4722C39.2166 93.4256 39.2422 93.4022 39.2842 93.4022C39.3309 93.4022 39.3542 93.4302 39.3542 93.4862C39.3542 93.5236 39.3519 93.5516 39.3472 93.5702C39.3332 93.6822 39.3262 93.8176 39.3262 93.9762C39.3262 94.2002 39.3379 94.3776 39.3612 94.5082L39.3682 94.6202C39.3729 94.6716 39.3519 94.6972 39.3052 94.6972C39.2539 94.6972 39.2189 94.6436 39.2002 94.5362C39.1489 94.2609 39.0276 94.0322 38.8362 93.8502C38.6449 93.6636 38.4302 93.5702 38.1922 93.5702C37.9589 93.5702 37.7722 93.6449 37.6322 93.7942C37.4969 93.9436 37.4292 94.1466 37.4292 94.4032C37.4292 94.7019 37.5296 94.9422 37.7302 95.1242C37.8422 95.2269 38.0849 95.3716 38.4582 95.5582C38.8969 95.7776 39.2119 96.0016 39.4032 96.2302C39.5946 96.4542 39.6902 96.7109 39.6902 97.0002ZM43.8906 94.7462C43.8906 94.8069 43.8626 94.8372 43.8066 94.8372C43.7506 94.8372 43.7109 94.7766 43.6876 94.6552C43.6782 94.5712 43.6689 94.4872 43.6596 94.4032C43.6269 94.2352 43.5732 94.0929 43.4986 93.9762C43.4006 93.8222 43.2396 93.7242 43.0156 93.6822C42.8709 93.6542 42.7542 93.6426 42.6656 93.6472C42.4462 93.6566 42.3132 93.6636 42.2666 93.6682V97.8892C42.2666 98.0572 42.3109 98.1622 42.3996 98.2042C42.4462 98.2276 42.5769 98.2416 42.7916 98.2462C42.8476 98.2509 42.8756 98.2719 42.8756 98.3092C42.8756 98.3512 42.8382 98.3722 42.7636 98.3722C42.7262 98.3722 42.6936 98.3699 42.6656 98.3652C42.3856 98.3559 42.1872 98.3512 42.0706 98.3512C41.9166 98.3512 41.7719 98.3536 41.6366 98.3582C41.5012 98.3629 41.3286 98.3652 41.1186 98.3652C41.0112 98.3652 40.9576 98.3466 40.9576 98.3092C40.9576 98.2672 41.0579 98.2439 41.2586 98.2392C41.4032 98.2392 41.4966 98.2089 41.5386 98.1482C41.5619 98.1109 41.5736 98.0152 41.5736 97.8612V93.6682C41.1116 93.6729 40.8246 93.6962 40.7126 93.7382C40.4186 93.8456 40.2459 94.1326 40.1946 94.5992C40.1806 94.7392 40.1479 94.8092 40.0966 94.8092C40.0406 94.8092 40.0126 94.7602 40.0126 94.6622C40.0126 94.6109 40.0149 94.5596 40.0196 94.5082L40.0336 94.3472C40.0476 94.1326 40.0686 93.8502 40.0966 93.5002H40.4116L41.8396 93.5212C42.0076 93.5259 42.2689 93.5236 42.6236 93.5142L43.7856 93.4932C43.7949 93.7546 43.8252 94.1419 43.8766 94.6552C43.8766 94.6692 43.8789 94.6879 43.8836 94.7112C43.8882 94.7299 43.8906 94.7416 43.8906 94.7462ZM45.2691 98.0362C45.2691 98.1389 45.2318 98.2276 45.1571 98.3022C45.0871 98.3722 45.0008 98.4072 44.8981 98.4072C44.7908 98.4072 44.6998 98.3722 44.6251 98.3022C44.5551 98.2276 44.5201 98.1366 44.5201 98.0292C44.5201 97.9266 44.5551 97.8402 44.6251 97.7702C44.6998 97.6956 44.7908 97.6582 44.8981 97.6582C45.0008 97.6582 45.0871 97.6956 45.1571 97.7702C45.2318 97.8402 45.2691 97.9289 45.2691 98.0362ZM50.5565 97.0492C50.5565 97.0632 50.5518 97.1006 50.5425 97.1612C50.5191 97.3152 50.4818 97.6956 50.4305 98.3022L50.4235 98.3862C49.9428 98.3629 49.3945 98.3512 48.7785 98.3512C48.4471 98.3512 48.1368 98.3559 47.8475 98.3652C47.5581 98.3746 47.4321 98.3792 47.4695 98.3792C47.3435 98.3792 47.2805 98.3559 47.2805 98.3092C47.2805 98.2719 47.4018 98.1552 47.6445 97.9592C48.2278 97.4832 48.6431 97.0959 48.8905 96.7972C49.3198 96.2792 49.5345 95.6702 49.5345 94.9702C49.5345 94.4989 49.4365 94.1419 49.2405 93.8992C49.0911 93.7126 48.8811 93.6192 48.6105 93.6192C48.3445 93.6192 48.1345 93.7009 47.9805 93.8642C47.8591 93.9902 47.7985 94.1162 47.7985 94.2422C47.7985 94.3216 47.8615 94.3636 47.9875 94.3682C48.3141 94.3822 48.4775 94.5246 48.4775 94.7952C48.4775 95.0519 48.3421 95.1802 48.0715 95.1802C47.8988 95.1802 47.7611 95.1266 47.6585 95.0192C47.5558 94.9119 47.5045 94.7649 47.5045 94.5782C47.5045 94.2329 47.6258 93.9552 47.8685 93.7452C48.1111 93.5352 48.4308 93.4302 48.8275 93.4302C49.2241 93.4302 49.5531 93.5562 49.8145 93.8082C50.1178 94.1022 50.2695 94.4849 50.2695 94.9562C50.2695 95.4742 50.0968 95.9526 49.7515 96.3912C49.4061 96.8252 48.8251 97.2989 48.0085 97.8122C48.3165 97.8029 48.7038 97.7982 49.1705 97.7982C49.5578 97.7982 49.8028 97.7936 49.9055 97.7842C50.0081 97.7702 50.0991 97.7399 50.1785 97.6932C50.2438 97.6512 50.2998 97.4949 50.3465 97.2242C50.3791 97.0376 50.4258 96.9442 50.4865 96.9442C50.5331 96.9442 50.5565 96.9792 50.5565 97.0492ZM54.3239 96.0202C54.3239 96.4356 54.2609 96.8276 54.1349 97.1962C54.0136 97.5649 53.8456 97.8612 53.6309 98.0852C53.4022 98.3279 53.1106 98.4492 52.7559 98.4492C52.2706 98.4492 51.8692 98.2112 51.5519 97.7352C51.2392 97.2592 51.0829 96.6502 51.0829 95.9082C51.0829 95.0496 51.3046 94.3729 51.7479 93.8782C52.0139 93.5796 52.3406 93.4302 52.7279 93.4302C53.1852 93.4302 53.5492 93.6379 53.8199 94.0532C54.1559 94.5666 54.3239 95.2222 54.3239 96.0202ZM53.5679 95.7682C53.5679 95.0729 53.4909 94.4989 53.3369 94.0462C53.2202 93.7009 53.0149 93.5282 52.7209 93.5282C52.1329 93.5282 51.8389 94.3099 51.8389 95.8732C51.8389 97.5112 52.1492 98.3302 52.7699 98.3302C53.0592 98.3302 53.2669 98.0922 53.3929 97.6162C53.5096 97.1822 53.5679 96.5662 53.5679 95.7682ZM58.0213 97.0492C58.0213 97.0632 58.0166 97.1006 58.0073 97.1612C57.984 97.3152 57.9466 97.6956 57.8953 98.3022L57.8883 98.3862C57.4076 98.3629 56.8593 98.3512 56.2433 98.3512C55.912 98.3512 55.6016 98.3559 55.3123 98.3652C55.023 98.3746 54.897 98.3792 54.9343 98.3792C54.8083 98.3792 54.7453 98.3559 54.7453 98.3092C54.7453 98.2719 54.8666 98.1552 55.1093 97.9592C55.6926 97.4832 56.108 97.0959 56.3553 96.7972C56.7846 96.2792 56.9993 95.6702 56.9993 94.9702C56.9993 94.4989 56.9013 94.1419 56.7053 93.8992C56.556 93.7126 56.346 93.6192 56.0753 93.6192C55.8093 93.6192 55.5993 93.7009 55.4453 93.8642C55.324 93.9902 55.2633 94.1162 55.2633 94.2422C55.2633 94.3216 55.3263 94.3636 55.4523 94.3682C55.779 94.3822 55.9423 94.5246 55.9423 94.7952C55.9423 95.0519 55.807 95.1802 55.5363 95.1802C55.3636 95.1802 55.226 95.1266 55.1233 95.0192C55.0206 94.9119 54.9693 94.7649 54.9693 94.5782C54.9693 94.2329 55.0906 93.9552 55.3333 93.7452C55.576 93.5352 55.8956 93.4302 56.2923 93.4302C56.689 93.4302 57.018 93.5562 57.2793 93.8082C57.5826 94.1022 57.7343 94.4849 57.7343 94.9562C57.7343 95.4742 57.5616 95.9526 57.2163 96.3912C56.871 96.8252 56.29 97.2989 55.4733 97.8122C55.7813 97.8029 56.1686 97.7982 56.6353 97.7982C57.0226 97.7982 57.2676 97.7936 57.3703 97.7842C57.473 97.7702 57.564 97.7399 57.6433 97.6932C57.7086 97.6512 57.7646 97.4949 57.8113 97.2242C57.844 97.0376 57.8906 96.9442 57.9513 96.9442C57.998 96.9442 58.0213 96.9792 58.0213 97.0492ZM61.7537 97.0492C61.7537 97.0632 61.7491 97.1006 61.7397 97.1612C61.7164 97.3152 61.6791 97.6956 61.6277 98.3022L61.6207 98.3862C61.1401 98.3629 60.5917 98.3512 59.9757 98.3512C59.6444 98.3512 59.3341 98.3559 59.0447 98.3652C58.7554 98.3746 58.6294 98.3792 58.6667 98.3792C58.5407 98.3792 58.4777 98.3559 58.4777 98.3092C58.4777 98.2719 58.5991 98.1552 58.8417 97.9592C59.4251 97.4832 59.8404 97.0959 60.0877 96.7972C60.5171 96.2792 60.7317 95.6702 60.7317 94.9702C60.7317 94.4989 60.6337 94.1419 60.4377 93.8992C60.2884 93.7126 60.0784 93.6192 59.8077 93.6192C59.5417 93.6192 59.3317 93.7009 59.1777 93.8642C59.0564 93.9902 58.9957 94.1162 58.9957 94.2422C58.9957 94.3216 59.0587 94.3636 59.1847 94.3682C59.5114 94.3822 59.6747 94.5246 59.6747 94.7952C59.6747 95.0519 59.5394 95.1802 59.2687 95.1802C59.0961 95.1802 58.9584 95.1266 58.8557 95.0192C58.7531 94.9119 58.7017 94.7649 58.7017 94.5782C58.7017 94.2329 58.8231 93.9552 59.0657 93.7452C59.3084 93.5352 59.6281 93.4302 60.0247 93.4302C60.4214 93.4302 60.7504 93.5562 61.0117 93.8082C61.3151 94.1022 61.4667 94.4849 61.4667 94.9562C61.4667 95.4742 61.2941 95.9526 60.9487 96.3912C60.6034 96.8252 60.0224 97.2989 59.2057 97.8122C59.5137 97.8029 59.9011 97.7982 60.3677 97.7982C60.7551 97.7982 61.0001 97.7936 61.1027 97.7842C61.2054 97.7702 61.2964 97.7399 61.3757 97.6932C61.4411 97.6512 61.4971 97.4949 61.5437 97.2242C61.5764 97.0376 61.6231 96.9442 61.6837 96.9442C61.7304 96.9442 61.7537 96.9792 61.7537 97.0492Z" fill="#3F1449"/>
<path d="M82.7584 102.729C82.7902 102.88 82.9228 102.97 83.0606 102.936C83.0818 102.931 83.103 102.925 83.1189 102.908C83.1348 102.903 83.1507 102.891 83.1613 102.875C83.1931 102.847 83.2143 102.818 83.2249 102.779C83.209 102.953 83.1454 103.116 83.0712 103.256L82.4351 103.043L82.398 103.133C82.5888 103.222 82.7849 103.312 82.9758 103.396C82.7637 103.688 82.4404 103.868 82.0693 103.873H81.9315L0.469556 102.886C0.321135 102.88 0.199219 102.745 0.199219 102.583C0.199219 102.414 0.321135 102.285 0.469556 102.285L81.9633 101.286H82.0428C82.4669 101.281 82.8485 101.528 83.0553 101.893C82.8167 101.994 82.5888 102.111 82.3556 102.229L82.3927 102.319C82.6365 102.224 82.8856 102.134 83.1295 102.05C83.1984 102.207 83.2355 102.375 83.2408 102.566V102.6C83.209 102.448 83.0818 102.358 82.944 102.392C82.8167 102.437 82.7319 102.583 82.7584 102.729Z" fill="#3F1449"/>
<path d="M95.7083 101.83C94.9609 101.32 94.1552 101.017 93.307 100.843C92.1356 100.636 90.9164 100.495 89.6866 100.585C88.4516 100.669 87.2218 100.905 86.0026 101.202C85.0379 101.432 84.0731 101.718 83.1296 102.06C82.8805 102.144 82.6313 102.234 82.3928 102.329L82.3557 102.239C82.5836 102.122 82.8169 102.01 83.0554 101.903C85.1439 100.899 87.3278 100.159 89.6177 99.8169C90.8846 99.6374 92.2151 99.5197 93.5032 99.901C94.24 100.12 94.9715 100.501 95.5599 101.034C94.8655 98.342 92.3476 96.5924 89.8351 97.2205C88.9975 97.4336 87.8897 97.8429 86.8083 98.4037C86.2358 98.7794 85.6581 99.1608 85.0591 99.5141C84.6827 99.7384 84.2905 99.9515 83.8717 100.108C83.6597 100.187 83.4318 100.243 83.1985 100.26C82.96 100.271 82.7161 100.176 82.5253 100.064C82.4935 100.047 82.467 100.024 82.4352 100.008H82.4193C82.1702 100.041 81.9793 100.254 81.9793 100.523L81.9687 101.297L81.9369 103.883L81.9316 104.634C81.9316 104.886 82.096 105.111 82.3292 105.155L82.7321 105.24L82.9971 105.296C82.9971 105.296 82.9971 105.296 83.0024 105.296L83.3204 105.363C83.4742 105.391 84.0784 105.632 84.5979 105.8C84.6032 105.8 84.6138 105.806 84.6191 105.806C84.794 105.851 84.9637 105.901 85.0962 105.929C85.0962 105.929 85.0962 105.935 85.1015 105.935C85.5414 106.204 86.0185 106.451 86.5062 106.67H86.5115C88.4516 107.516 90.6726 107.914 91.9978 107.595C93.7099 107.169 95.0033 105.789 95.5016 104.079C94.9397 104.578 94.2665 104.942 93.5827 105.167C92.2999 105.587 90.9694 105.503 89.7025 105.363C87.3596 105.077 85.1068 104.365 82.9706 103.406C82.7745 103.322 82.5783 103.232 82.3928 103.142L82.4299 103.053L83.066 103.266C84.0466 103.602 85.0538 103.866 86.0609 104.079C87.2854 104.342 88.5205 104.544 89.7502 104.589C90.9853 104.645 92.1992 104.471 93.3601 104.236C94.1817 104.04 94.9609 103.725 95.6765 103.221V103.204C95.756 102.761 95.7613 102.296 95.7083 101.83ZM82.9388 100.439C83.0766 100.406 83.2091 100.495 83.2409 100.647C83.2727 100.798 83.1879 100.944 83.0501 100.978C82.9123 101.006 82.7851 100.922 82.748 100.77C82.7214 100.619 82.8063 100.473 82.9388 100.439ZM83.2568 104.275C83.2886 104.426 83.2038 104.572 83.066 104.612C82.9282 104.645 82.7957 104.555 82.7639 104.398C82.732 104.258 82.8169 104.101 82.9547 104.073C83.0925 104.04 83.2303 104.124 83.2568 104.275ZM83.2356 102.772C83.2356 102.778 83.2356 102.778 83.2303 102.778C83.2197 102.817 83.1932 102.851 83.1667 102.873C83.1561 102.884 83.1455 102.901 83.1243 102.907C83.1084 102.918 83.0872 102.924 83.066 102.935C82.9282 102.968 82.7957 102.879 82.7639 102.727C82.732 102.576 82.8169 102.436 82.9547 102.396C83.0925 102.363 83.2197 102.453 83.2515 102.604C83.2568 102.654 83.2515 102.722 83.2356 102.772Z" fill="#3F1449"/>
<path d="M96.6321 102.543C96.542 102.756 96.436 102.958 96.3194 103.143C96.0968 103.491 95.8211 103.811 95.5137 104.08C95.5614 103.923 95.6038 103.766 95.6303 103.603C95.6621 103.474 95.678 103.345 95.6886 103.216V103.205C95.8847 103.081 96.0649 102.935 96.2505 102.767C96.3512 102.677 96.4519 102.588 96.5526 102.481L96.6321 102.543Z" fill="#3F1449"/>
<path d="M82.8337 107.803C82.5315 107.478 82.2506 107.102 82.1128 106.636C82.0491 106.406 82.0226 106.137 82.1128 105.891C82.1976 105.644 82.3831 105.453 82.5792 105.33C82.7647 105.201 83.0139 105.1 83.2577 105.111C83.4963 105.122 83.7189 105.184 83.9309 105.257C84.355 105.408 84.7419 105.621 85.1289 105.84C86.6555 106.709 88.0708 107.752 89.6451 108.33C90.4243 108.616 91.2406 108.79 92.0305 108.678C92.8256 108.588 93.5571 108.173 94.1667 107.59C94.7815 107.001 95.2692 106.238 95.6827 105.442C96.1067 104.646 96.4407 103.788 96.7693 102.924C96.3612 104.724 95.7463 106.558 94.49 107.965C93.8645 108.661 93.0164 109.16 92.11 109.3C91.2035 109.44 90.2918 109.261 89.4596 108.947C87.7899 108.308 86.3587 107.225 84.9222 106.249C84.5617 106.014 84.196 105.784 83.8143 105.616C83.4273 105.453 83.051 105.341 82.6958 105.565C82.5209 105.655 82.3672 105.795 82.2824 105.98C82.1976 106.165 82.1976 106.39 82.24 106.608C82.3354 107.035 82.5633 107.444 82.8337 107.803Z" fill="#3F1449"/>
<path d="M96.6053 102.436L96.5364 102.492C96.4463 102.402 96.3509 102.324 96.2608 102.239C96.0859 102.088 95.9057 101.948 95.7148 101.825C95.7042 101.707 95.683 101.6 95.6671 101.483V101.477C95.6565 101.41 95.6459 101.348 95.63 101.292C95.6141 101.202 95.5876 101.118 95.5664 101.034C95.8261 101.258 96.0594 101.516 96.2555 101.808C96.388 102.004 96.5099 102.217 96.6053 102.436Z" fill="#3F1449"/>
<path d="M96.6471 101.758H96.5994C96.2973 101.006 95.9792 100.266 95.587 99.5706C95.1576 98.7799 94.654 98.0396 94.0285 97.4677C93.4083 96.9013 92.6609 96.5087 91.8711 96.4526C91.0866 96.3685 90.2756 96.576 89.507 96.8844C88.574 97.2658 87.6941 97.8209 86.8089 98.3929C86.2364 98.7686 85.6586 99.15 85.0596 99.5033C84.6833 99.7276 84.291 99.9407 83.8723 100.098C83.6603 100.176 83.4323 100.232 83.1991 100.249C82.9606 100.26 82.7167 100.165 82.5259 100.053C82.4941 100.036 82.4676 100.014 82.4358 99.9967C82.2715 99.8846 82.1177 99.7444 82.0117 99.5593C81.8898 99.3406 81.8527 99.0771 81.8792 98.8359C81.9322 98.3425 82.1548 97.9219 82.4252 97.563C82.2025 97.9499 82.0276 98.3985 82.0117 98.8416C81.9799 99.2958 82.2555 99.6715 82.6319 99.8229C82.9924 100.019 83.3687 99.9126 83.7557 99.75C84.1267 99.5818 84.4925 99.3519 84.8476 99.1051C86.2629 98.1182 87.657 96.9854 89.3003 96.2844C90.1166 95.9479 91.023 95.7292 91.9294 95.8302C92.8412 95.9423 93.7052 96.4134 94.3413 97.0863C95.5552 98.3873 96.2071 100.07 96.6471 101.758Z" fill="#3F1449"/>
<path d="M96.7274 102.056C96.685 101.96 96.6532 101.853 96.6055 101.758H96.6532C96.6744 101.859 96.7009 101.96 96.7274 102.056Z" fill="#3F1449"/>
<path d="M102.781 102.492L102.775 102.487C100.888 100.4 99.5471 101.881 99.5471 101.881C99.5842 101.629 99.5365 101.382 99.4463 101.163C99.2184 100.602 98.683 100.232 98.1212 100.238C97.2836 100.243 97.2677 101.174 97.2677 101.174C97.4162 101.141 98.4551 101.124 98.1795 101.73C97.9621 102.212 97.2995 101.842 96.9974 101.774C96.902 101.758 96.7642 101.746 96.6475 101.763H96.5998C96.4408 101.774 96.303 101.802 96.25 101.814C96.2341 101.825 96.2288 101.825 96.2288 101.83L96.25 102.133V102.801L96.2129 103.103C96.2129 103.109 96.2553 103.12 96.3136 103.143C96.3984 103.154 96.5256 103.176 96.6635 103.182C96.6741 103.188 96.6847 103.188 96.7006 103.188C96.8066 103.188 96.9126 103.182 96.9974 103.171C97.2995 103.109 97.9621 102.733 98.1742 103.221C98.4498 103.827 97.4056 103.804 97.2624 103.765C97.2624 103.765 97.2624 104.696 98.1 104.713C98.6671 104.724 99.1972 104.348 99.4357 103.788C99.5206 103.58 99.5789 103.333 99.5418 103.081C99.5471 103.087 100.878 104.573 102.781 102.492ZM100.194 102.795C100.008 102.84 99.8333 102.717 99.7909 102.515C99.7485 102.318 99.8598 102.122 100.04 102.077C100.226 102.032 100.4 102.156 100.443 102.358C100.48 102.548 100.369 102.75 100.194 102.795Z" fill="#3F1449"/>
<path d="M102.785 102.487V102.492H102.779V102.487H102.785Z" fill="#3F1449"/>
</svg>
