<svg width="103" height="111" viewBox="0 0 103 111" fill="none" xmlns="http://www.w3.org/2000/svg">
<path d="M84.3715 5.49707L84.3132 5.96838L84.292 6.14441L84.276 6.31477L84.2654 6.37155L84.2336 6.6214L77.507 60.05C73.5685 59.1584 70.3139 58.3407 67.584 57.4265L83.9898 6.68386L84.0057 6.63844L84.0375 6.53623L84.1223 6.29205L84.2283 5.95702L84.3715 5.49707Z" fill="white"/>
<path d="M74.1841 20.3453L63.3017 55.6085H63.1479C57.5663 52.7465 55.8859 48.4764 52.9811 40.1347L46.4665 18.6361L39.6974 41.3556L39.6815 41.4124C38.6426 45.2112 37.5241 47.9653 36.1777 50.0323L35.812 50.5717C35.7696 50.6285 35.7218 50.6966 35.6741 50.7591L35.3031 51.2418C35.213 51.3553 35.1282 51.4632 35.038 51.5711C34.9585 51.662 34.8843 51.7528 34.7995 51.8323L34.7359 51.9118C34.5292 52.139 34.333 52.3377 34.1422 52.5137L34.0362 52.6273C33.9673 52.6898 33.8931 52.7579 33.8295 52.8147L33.7765 52.8601C32.7481 53.8027 31.5183 54.6261 30.0182 55.3984C29.8963 55.4552 29.7691 55.5233 29.6472 55.5801L18.3301 20.6235L46.44 4.54785L74.1841 20.3453Z" fill="white"/>
<path d="M6.24982 2.73118L4.61719 3.39556L5.14726 1.83398L6.24982 2.73118Z" fill="white"/>
<path d="M8.41779 1.84537L6.78516 2.50407L7.25162 0.976562L8.41779 1.84537Z" fill="white"/>
<path d="M9.19763 0L8.66756 1.56725L7.49609 0.69845L9.19763 0Z" fill="white"/>
<path d="M6.90273 0.942871L6.43626 2.4647L5.34961 1.57886L6.90273 0.942871Z" fill="white"/>
<path d="M10.6658 0.920636L9.0332 1.59069L9.56858 0.0234375L10.6658 0.920636Z" fill="white"/>
<path d="M8.64577 6.24081L4.72852 3.74229L6.52547 3.00977L8.64577 6.24081Z" fill="white"/>
<path d="M9.1604 6.75313L9.1551 6.74743L8.88477 6.33154L8.90597 6.50246L8.91657 6.60501L9.1551 6.75883L9.1657 6.76453L9.1604 6.75313Z" fill="white"/>
<path d="M10.7607 1.27783L9.24466 6.00799L8.91602 2.03307L10.7607 1.27783Z" fill="white"/>
<path d="M9.07564 6.43933L8.86361 6.1043L8.8371 5.92827L6.86523 2.87325L8.56677 2.1748L8.94312 5.91123L9.05443 6.25761L9.07564 6.43933Z" fill="white"/>
<path d="M88.5643 3.39556L86.9316 2.73118L88.0236 1.83398L88.5643 3.39556Z" fill="white"/>
<path d="M86.3865 2.50407L84.7539 1.84537L85.9201 0.976562L86.3865 2.50407Z" fill="white"/>
<path d="M85.6815 0.69845L84.5153 1.56725L83.9746 0L85.6815 0.69845Z" fill="white"/>
<path d="M87.8285 1.57886L86.7366 2.4647L86.2754 0.942871L87.8285 1.57886Z" fill="white"/>
<path d="M82.416 1.27783L84.2607 2.03875L83.932 6.01366L82.416 1.27783Z" fill="white"/>
<path d="M83.609 0.0234375L84.139 1.59069L82.5117 0.920636L83.609 0.0234375Z" fill="white"/>
<path d="M84.1396 1.59069L82.5176 0.920636L83.6096 0.0234375L84.1396 1.59069Z" fill="white"/>
<path d="M88.4485 3.7418L84.5312 6.24032L86.6463 3.00928L88.4485 3.7418Z" fill="white"/>
<path d="M85.9201 0.976562L86.3865 2.50974L84.7539 1.85104L85.9201 0.976562Z" fill="white"/>
<path d="M88.4485 3.7418L84.5312 6.24032L86.6463 3.00928L88.4485 3.7418Z" fill="white"/>
<path d="M84.2607 2.03307L83.9267 6.00799L82.416 1.27783L84.2607 2.03307Z" fill="white"/>
<path d="M86.312 2.87325L84.3136 5.96801L84.2871 6.14405L84.1016 6.43933L84.1175 6.29169L84.2235 5.95666L84.6051 2.1748L86.312 2.87325Z" fill="white"/>
<path d="M46.4023 98.9927L46.4554 98.9585C46.4448 99.0098 46.4395 99.0724 46.4235 99.1237C46.4182 99.0781 46.4076 99.0326 46.4023 98.9927Z" fill="white"/>
<path d="M77.3378 65.0182C77.3219 65.0238 77.306 65.0238 77.2901 65.0295C77.2848 65.0295 77.2848 65.0295 77.2795 65.0295L15.8809 64.8421C16.1459 64.7853 16.4056 64.7229 16.6654 64.6661C16.9198 64.615 17.1742 64.5525 17.4234 64.4957C17.593 64.456 17.7626 64.4162 17.9323 64.3765C18.2609 64.3027 18.5895 64.2232 18.9129 64.1493C23.445 63.0761 27.1238 61.9915 30.1505 60.6685C30.7548 60.4073 31.3326 60.1404 31.8838 59.8508C33.6861 58.9309 35.2339 57.886 36.5856 56.6652C36.734 56.5345 36.8824 56.3983 37.0256 56.2506C37.3171 55.9781 37.5927 55.6885 37.8631 55.3875C38.0009 55.2455 38.1334 55.0865 38.2659 54.9332C38.3985 54.7742 38.5257 54.6209 38.6476 54.4619C38.7801 54.3029 38.902 54.1439 39.0186 53.9792C39.1406 53.8089 39.2678 53.6442 39.3791 53.4739C39.501 53.3035 39.6229 53.1332 39.7342 52.9571C41.5789 50.1349 42.9518 46.5802 44.1604 41.9409C44.2346 41.6456 44.3141 41.356 44.383 41.0551C44.4519 40.7712 44.5261 40.4872 44.595 40.192C44.7434 39.5787 44.8919 38.9484 45.035 38.301C45.5439 36.0297 46.0262 33.5425 46.5298 30.7998C51.0195 55.8872 54.693 59.9587 77.3378 65.0182Z" fill="white"/>
<path d="M25.3846 57.296C23.3438 57.9831 20.9161 58.6531 17.9635 59.3516C17.6667 59.4254 17.3699 59.4935 17.0359 59.5674L16.4899 59.698C16.2779 59.7434 16.0659 59.7945 15.8538 59.8399L15.4669 59.9251L8.92046 6.6101L8.90986 6.50789L8.88866 6.33753L8.88336 6.28075L8.86746 6.1104L8.84625 5.93436L8.77734 5.36084L8.95227 5.91733L9.06358 6.26371L9.1431 6.51357L9.1802 6.6101L9.1961 6.67824L25.3846 57.296Z" fill="white"/>
<path d="M34.7194 70.7698C34.7194 71.3433 34.1999 71.8316 33.161 72.2291C32.1221 72.6266 30.8499 72.831 29.3498 72.831C27.839 72.831 25.9626 72.6039 23.7204 72.1439C22.5383 72.8254 21.4516 73.8361 20.471 75.1706C19.4904 76.5107 18.4355 78.4016 17.3117 80.8547C16.188 83.3078 15.3611 84.9375 14.8363 85.7552C14.3115 86.5729 13.5906 87.3622 12.6789 88.1288C10.2617 90.1106 7.75979 91.0986 5.15712 91.0986C3.77363 91.0986 2.63927 90.7749 1.75934 90.1219C0.879417 89.4746 0.439453 88.6285 0.439453 87.595C0.439453 87.0726 0.577273 86.624 0.858213 86.2549C1.13915 85.8801 1.4678 85.6927 1.85476 85.6927C2.48024 85.6927 2.79299 86.0562 2.79299 86.7773C2.79299 87.118 2.69757 87.4133 2.50675 87.6575C2.31592 87.9017 2.07739 88.0266 1.79645 88.0266C1.34588 88.0266 1.11795 87.7824 1.11795 87.2941C1.11795 87.0385 1.08084 86.9079 1.00133 86.9079C0.83701 86.9079 0.7575 87.1691 0.7575 87.6915C0.7575 88.5547 1.16035 89.2872 1.96077 89.8834C2.76648 90.4797 3.75242 90.7806 4.92919 90.7806C7.50536 90.7806 9.82179 89.4916 11.8732 86.9136C12.8326 85.7098 14.0783 83.7223 15.5996 80.9512C18.0804 76.4539 20.6777 73.5011 23.3811 72.0815C22.8616 71.9849 22.0824 71.8089 21.0435 71.5534C18.5998 70.9685 16.7287 70.6732 15.43 70.6732C15.2975 70.6732 14.8893 70.6959 14.2161 70.7357C14.6667 71.6726 14.8946 72.7459 14.8946 73.9497C14.8946 76.2949 14.0889 78.4924 12.4828 80.548C10.8766 82.6037 9.15919 83.6314 7.33043 83.6314C6.56712 83.6314 5.95224 83.3532 5.47517 82.791C4.9981 82.2289 4.75957 81.5077 4.75957 80.6275C4.75957 79.4124 5.17303 78.0666 6.00524 76.5902C6.83746 75.1138 7.91352 73.8248 9.2387 72.7231C10.5639 71.6215 12.011 70.8492 13.5906 70.412C12.8326 69.2706 11.7513 68.7028 10.3466 68.7028C9.16449 68.7028 7.96652 69.0833 6.76325 69.8498C5.55468 70.6108 4.49453 71.6499 3.5828 72.9616C3.45028 73.1661 3.35487 73.2683 3.30716 73.2683C3.24885 73.2683 3.21175 73.2342 3.19055 73.1717C3.19055 72.99 3.5881 72.4619 4.37261 71.5875C6.26498 69.4978 8.24746 68.4473 10.3148 68.4473C11.9209 68.4473 13.1401 69.0719 13.9776 70.3155C15.1437 69.9407 16.4795 69.7533 17.9902 69.7533C18.7695 69.7533 19.4798 69.8044 20.1265 69.9123C20.8102 70.0316 22.4853 70.3893 25.1516 70.9969C27.3726 69.9237 29.5088 69.3842 31.5602 69.3842C33.6646 69.3956 34.7194 69.8555 34.7194 70.7698ZM14.3221 73.1717C14.3221 72.32 14.1419 71.5307 13.7867 70.8038C11.6293 71.1956 9.62566 72.4279 7.76509 74.4948C5.90983 76.5618 4.9822 78.5947 4.9822 80.5992C4.9822 81.3657 5.19423 82.0131 5.62359 82.5355C6.05295 83.0579 6.57773 83.3191 7.20322 83.3191C8.83055 83.3191 10.4208 82.2062 11.9792 79.9859C13.5429 77.7656 14.3221 75.4942 14.3221 73.1717ZM34.4862 70.8038C34.4862 70.4972 34.2159 70.236 33.6699 70.0202C33.1292 69.8101 32.4401 69.7022 31.6132 69.7022C29.5565 69.7022 27.5581 70.1792 25.6233 71.1388C25.8619 71.1843 26.5033 71.3092 27.5422 71.525C29.0794 71.8543 30.447 72.019 31.6397 72.019C32.4189 72.019 33.0868 71.8998 33.6487 71.6613C34.2105 71.4171 34.4862 71.1332 34.4862 70.8038Z" fill="white"/>
<path d="M27.4523 85.3412C27.4523 85.4264 27.4046 85.5229 27.3092 85.6308L26.689 86.5734C24.8762 89.3558 23.5298 90.7527 22.6446 90.7527C22.1834 90.7527 21.8017 90.571 21.5102 90.2019C21.2187 89.8328 21.0702 89.3729 21.0702 88.8221C21.0702 88.0782 21.436 87.1015 22.1675 85.8977C23.3125 84.0351 23.8849 82.9278 23.8849 82.5758C23.8849 82.1613 23.6888 81.9511 23.2913 81.9511C22.7135 81.9511 21.9237 82.5815 20.9218 83.8364C19.9571 85.0402 18.6372 87.323 16.9516 90.6789C16.6653 90.6165 16.4162 90.5824 16.2147 90.5824C16.0027 90.5824 15.7165 90.6165 15.3613 90.6789L17.4816 86.4258C17.7679 85.8182 18.2131 84.921 18.8121 83.7399C19.1302 83.1663 20.1055 81.3322 21.7434 78.2431L23.9379 74.1206C24.2242 74.183 24.4733 74.2171 24.6748 74.2171C25.0617 74.2171 25.4275 74.166 25.772 74.0581C24.7702 75.8355 23.2807 78.4986 21.2982 82.0477C21.2399 82.1556 20.4925 83.5298 19.0613 86.1702C20.8688 83.2004 22.3 81.7127 23.3496 81.7127C23.763 81.7127 24.1182 81.9114 24.4097 82.3032C24.7066 82.695 24.8497 83.1777 24.8497 83.7399C24.8497 84.4724 24.4256 85.5343 23.5775 86.9198C22.634 88.4643 22.1622 89.4353 22.1622 89.8272C22.1622 90.2871 22.3689 90.5143 22.7824 90.5143C23.5351 90.5143 24.7755 89.1685 26.5141 86.4825L26.9647 85.7955L27.2244 85.4434C27.2721 85.3355 27.3304 85.2844 27.3993 85.2844C27.4311 85.273 27.4523 85.2958 27.4523 85.3412Z" fill="white"/>
<path d="M34.7569 85.3865C34.7569 85.4205 34.6721 85.5568 34.4971 85.801L33.877 86.6641C31.8839 89.3898 30.1717 90.7469 28.7511 90.7469C28.0779 90.7469 27.5108 90.48 27.0549 89.9406C26.599 89.4011 26.3711 88.7311 26.3711 87.9191C26.3711 85.9997 27.5797 84.3132 29.9968 82.8539C31.269 82.0873 32.3026 81.7012 33.0977 81.7012C33.4423 81.7012 33.7391 81.8147 33.9883 82.0419C34.2321 82.269 34.354 82.5529 34.354 82.8823C34.354 83.6489 33.9035 84.3019 32.997 84.8413C32.0906 85.3808 30.5799 85.8805 28.4649 86.3518C27.8076 87.4477 27.4843 88.3676 27.4843 89.1002C27.4843 90.0144 27.9348 90.4743 28.8253 90.4743C30.3467 90.4743 32.2125 88.8333 34.4176 85.5455C34.5343 85.3751 34.6297 85.2899 34.7039 85.2899C34.7357 85.3013 34.7569 85.3354 34.7569 85.3865ZM33.5377 82.4223C33.5377 82.0816 33.3681 81.9113 33.0341 81.9113C32.5253 81.9113 31.8521 82.3031 31.0199 83.0867C30.1876 83.8703 29.3713 84.8868 28.5709 86.1304C29.9544 85.7385 31.1312 85.1764 32.0906 84.4609C33.0553 83.7397 33.5377 83.064 33.5377 82.4223Z" fill="white"/>
<path d="M61.2921 72.6442C61.2921 73.337 60.8575 74.0582 59.9935 74.8021C60.7833 76.0911 61.1755 77.2779 61.1755 78.3681C61.1755 78.635 61.1013 78.7656 60.9582 78.7656C60.8416 78.7656 60.7833 78.5896 60.7833 78.2375C60.7833 77.17 60.444 76.0911 59.7708 74.9951C58.3767 76.1478 56.4791 77.1416 54.0778 77.9763C51.6766 78.811 49.5457 79.2312 47.6904 79.2312C47.4307 79.2312 47.2027 79.2199 47.0119 79.1972C45.4747 81.5708 44.7008 83.8649 44.7008 86.0681C44.7008 87.5729 45.1249 88.7597 45.9624 89.6342C46.8052 90.5087 47.9502 90.9459 49.4026 90.9459C52.143 90.9459 54.592 89.4922 56.7335 86.5848C58.0322 84.8245 58.6842 83.1607 58.6842 81.5821C58.6842 80.7531 58.4562 80.0887 58.0057 79.6003C57.5551 79.112 56.9561 78.8678 56.2034 78.8678C55.0055 78.8678 53.7121 79.5663 52.3339 80.9689C50.9557 82.3714 50.2666 83.6775 50.2666 84.8927C50.2666 85.0005 50.2931 85.0517 50.3514 85.0517C50.3991 85.0403 50.4362 85.0176 50.468 84.9892C50.7277 84.7337 50.961 84.6031 51.1836 84.6031C51.6713 84.6031 51.9151 84.8983 51.9151 85.4832C51.9151 86.2725 51.5706 86.6643 50.8762 86.6643C50.2401 86.6643 49.922 86.2385 49.922 85.3867C49.922 83.8649 50.6217 82.3544 52.0158 80.8553C53.4099 79.3562 54.8252 78.6123 56.2617 78.6123C58.1117 78.6123 59.034 79.7366 59.034 81.9853C59.034 84.3078 58.0322 86.4258 56.0232 88.3395C54.0195 90.2531 51.7932 91.2071 49.3496 91.2071C47.648 91.2071 46.2168 90.5711 45.0559 89.3048C43.8951 88.0385 43.3173 86.4713 43.3173 84.6087C43.3173 82.7973 43.8898 80.9405 45.0347 79.0325C40.8684 78.1807 38.7852 76.3579 38.7852 73.5698C38.7852 71.906 39.5591 70.5148 41.1122 69.3962C42.66 68.2775 44.5895 67.7153 46.9006 67.7153C50.1235 67.7153 53.3834 68.9021 56.6752 71.2814C57.2424 71.1508 57.8254 71.0883 58.4191 71.0883C60.3327 71.077 61.2921 71.5994 61.2921 72.6442ZM56.2723 71.3325C53.3463 69.4586 50.2348 68.5217 46.9324 68.5217C44.8916 68.5217 43.1106 69.0555 41.584 70.1173C40.0573 71.1849 39.294 72.4285 39.294 73.8594C39.294 76.4034 41.2447 78.0501 45.1567 78.7997C47.5791 75.0576 51.2843 72.5704 56.2723 71.3325ZM59.6595 74.768C58.9174 73.5869 57.9209 72.5363 56.6699 71.6221C54.8676 72.1672 53.1131 73.0985 51.4009 74.4273C49.6888 75.7504 48.2841 77.2608 47.1868 78.9587C49.1958 78.9587 51.4221 78.5498 53.8605 77.7378C56.3041 76.9201 58.2389 75.9321 59.6595 74.768ZM61.0642 72.6442C61.0642 71.7698 60.2956 71.3325 58.7531 71.3325C58.2707 71.3325 57.6982 71.4063 57.0356 71.554C58.1806 72.4285 59.1294 73.4449 59.8821 74.609C60.6667 73.8651 61.0642 73.2064 61.0642 72.6442Z" fill="white"/>
<path d="M70.0166 85.3696C70.0166 85.5968 69.3116 86.6303 67.9069 88.4758C66.7672 89.9919 65.8714 90.7471 65.2194 90.7471C64.7742 90.7471 64.4137 90.5654 64.1381 90.1963C63.8571 89.8272 63.7193 89.3673 63.7193 88.8165C63.7193 88.2429 63.873 87.6183 64.1805 86.9482C63.2157 88.4417 62.4842 89.4468 61.9701 89.9692C61.4612 90.4916 60.9629 90.7528 60.4859 90.7528C59.977 90.7528 59.5476 90.5086 59.2031 90.026C58.8585 89.5433 58.6836 88.93 58.6836 88.1975C58.6836 86.1533 59.9876 84.3418 62.5956 82.7632C63.7405 82.0591 64.6628 81.707 65.3678 81.707C65.9615 81.707 66.2637 82.025 66.2637 82.6667C66.2637 82.8484 66.2266 83.0869 66.1471 83.3879L66.8839 81.8376C67.1701 81.9115 67.4298 81.9512 67.6472 81.9512C67.9069 81.9512 68.2409 81.9115 68.6596 81.8376L66.1046 86.5224C65.2194 88.1634 64.7742 89.2423 64.7742 89.7648C64.7742 90.2645 64.965 90.5143 65.336 90.5143C65.723 90.5143 66.3379 90.026 67.186 89.0493C68.0341 88.0726 68.8981 86.8687 69.7728 85.4378C69.8311 85.3299 69.8841 85.2788 69.9318 85.2788C69.9901 85.2731 70.0166 85.3072 70.0166 85.3696ZM66.041 82.7292C66.041 82.2067 65.8237 81.9455 65.3943 81.9455C64.5091 81.9455 63.3483 82.9052 61.9065 84.8245C60.4699 86.7438 59.749 88.294 59.749 89.4752C59.749 90.1679 60.03 90.5143 60.5866 90.5143C61.2492 90.5143 62.3994 89.2934 64.0374 86.8574C65.3731 84.8472 66.041 83.473 66.041 82.7292Z" fill="white"/>
<path d="M74.9194 79.1687C74.9194 79.5946 74.3204 80.4407 73.1172 81.7013C73.0588 82.0306 73.0323 82.3202 73.0323 82.5644C73.0323 83.1834 73.2868 84.16 73.7956 85.5058C74.0554 86.1759 74.1826 86.7437 74.1826 87.198C74.1826 88.1577 73.7638 88.9867 72.921 89.6909C72.0782 90.395 71.0817 90.7471 69.9261 90.7471C69.2688 90.7471 68.7493 90.5426 68.3624 90.1338C67.9701 89.7249 67.7793 89.1741 67.7793 88.4813C67.7793 87.6807 68.039 86.9027 68.5532 86.1475C69.0674 85.3923 69.5975 85.0118 70.1487 85.0118C70.2441 85.0118 70.329 85.0345 70.4085 85.0743L71.564 83.507C71.9086 83.0471 72.3697 82.4168 72.9475 81.6047C73.1118 80.8609 73.361 80.2192 73.7002 79.6854C74.0395 79.1516 74.3681 78.8848 74.6968 78.8848C74.8399 78.8904 74.9194 78.987 74.9194 79.1687ZM72.9104 85.4774C72.9104 85.1594 72.8998 84.8415 72.8839 84.5291C72.8627 84.2168 72.8574 83.7626 72.8574 83.1777C72.8574 82.7007 72.8786 82.2975 72.9157 81.9795C72.375 82.7348 71.5958 83.8023 70.5781 85.1765C70.7583 85.3468 70.8537 85.5569 70.8537 85.8011C70.8537 86.4314 70.3873 86.8573 69.4543 87.0788C69.078 87.1753 68.7546 87.4024 68.479 87.7602C68.2034 88.1179 68.0655 88.4927 68.0655 88.8845C68.0655 89.3104 68.2034 89.6681 68.4843 89.9577C68.7599 90.2474 69.1098 90.3893 69.5232 90.3893C70.329 90.3893 71.0976 89.8726 71.8238 88.8334C72.55 87.7829 72.9104 86.6699 72.9104 85.4774Z" fill="white"/>
<path d="M81.1279 81.7015L81.0113 81.94H79.1189L75.9013 88.0273C75.5038 88.7598 75.3076 89.3504 75.3076 89.7876C75.3076 90.2646 75.5356 90.5088 75.9861 90.5088C76.8608 90.5088 78.3397 88.8166 80.4229 85.4322C80.4918 85.3244 80.5501 85.2733 80.5978 85.2733C80.6561 85.2733 80.6826 85.3073 80.6826 85.3698C80.672 85.4039 80.6243 85.489 80.5395 85.6253L79.9193 86.5679C78.1064 89.3504 76.7441 90.7473 75.8324 90.7473C75.3818 90.7473 75.0002 90.5656 74.6981 90.2021C74.3959 89.8387 74.2422 89.3844 74.2422 88.845C74.2422 88.2033 74.4966 87.4083 75.0055 86.4487L77.4279 81.94H75.9543L76.0975 81.7015H77.5393L79.2249 78.6011C79.5111 78.6863 79.7868 78.7317 80.0465 78.7317C80.3168 78.7317 80.5925 78.6919 80.884 78.6011L79.2249 81.7015H81.1279Z" fill="white"/>
<path d="M88.2565 74.0469C84.2174 81.4913 81.8585 85.8751 81.1906 87.1811C80.5227 88.4929 80.1888 89.3617 80.1888 89.7875C80.1888 90.2645 80.3743 90.5087 80.7401 90.5087C81.5511 90.5087 83.0353 88.8165 85.1927 85.4322C85.2404 85.3243 85.2987 85.2732 85.3676 85.2732C85.4047 85.2845 85.4259 85.3186 85.4259 85.3697C85.4259 85.4322 85.3782 85.5173 85.2828 85.6252L84.6626 86.5679C82.8392 89.3503 81.4981 90.7472 80.634 90.7472C80.2206 90.7472 79.8813 90.5712 79.6163 90.2248C79.3513 89.8784 79.2188 89.4412 79.2188 88.9074C79.2188 88.3225 79.3407 87.7547 79.5845 87.2038C79.8283 86.653 80.6659 85.0688 82.0865 82.451C83.8304 79.2427 85.2934 76.4659 86.4861 74.1093C86.7723 74.1945 87.0321 74.2399 87.2494 74.2399C87.6098 74.2399 87.9491 74.1775 88.2565 74.0469Z" fill="white"/>
<path d="M92.6944 85.3865C92.6944 85.4205 92.6096 85.5568 92.4346 85.801L91.8144 86.6641C89.8214 89.3898 88.1092 90.7469 86.6886 90.7469C86.0154 90.7469 85.4483 90.48 84.9924 89.9406C84.5365 89.4011 84.3086 88.7311 84.3086 87.9191C84.3086 85.9997 85.5172 84.3132 87.929 82.8539C89.2012 82.0873 90.2348 81.7012 91.0352 81.7012C91.3798 81.7012 91.6766 81.8147 91.9205 82.0419C92.1643 82.269 92.2862 82.5529 92.2862 82.8823C92.2862 83.6489 91.8356 84.3019 90.9292 84.8413C90.0228 85.3808 88.5121 85.8805 86.3971 86.3518C85.7398 87.4477 85.4164 88.3676 85.4164 89.1002C85.4164 90.0144 85.867 90.4743 86.7628 90.4743C88.2841 90.4743 90.15 88.8333 92.3551 85.5455C92.4717 85.3751 92.5672 85.2899 92.6414 85.2899C92.6785 85.3013 92.6944 85.3354 92.6944 85.3865ZM91.4752 82.4223C91.4752 82.0816 91.3056 81.9113 90.9716 81.9113C90.4628 81.9113 89.7896 82.3031 88.9573 83.0867C88.1251 83.8703 87.3088 84.8868 86.5084 86.1304C87.8919 85.7385 89.0687 85.1764 90.0281 84.4609C90.9928 83.7397 91.4752 83.064 91.4752 82.4223Z" fill="white"/>
<path d="M36.0678 98.0042C36.0678 98.0229 36.0631 98.1372 36.0538 98.3472C36.0445 98.5572 36.0398 98.7579 36.0398 98.9492V99.1802C35.5825 99.1569 34.6771 99.1452 33.3238 99.1452C33.1605 99.1452 32.9995 99.1475 32.8408 99.1522C32.6821 99.1522 32.5748 99.1522 32.5188 99.1522H32.4488C32.3601 99.1522 32.3158 99.1312 32.3158 99.0892C32.3158 99.0612 32.3298 99.0449 32.3578 99.0402C32.3718 99.0402 32.4605 99.0332 32.6238 99.0192C32.7451 99.0099 32.8175 98.9842 32.8408 98.9422C32.8688 98.9002 32.8828 98.7905 32.8828 98.6132V94.6792C32.8828 94.5439 32.8618 94.4645 32.8198 94.4412C32.7825 94.4132 32.6565 94.3992 32.4418 94.3992C32.3671 94.3992 32.3298 94.3782 32.3298 94.3362C32.3298 94.2942 32.3811 94.2732 32.4838 94.2732L33.6808 94.2802C33.7228 94.2802 33.9865 94.2779 34.4718 94.2732C34.9571 94.2732 35.2838 94.2732 35.4518 94.2732C35.5918 94.2732 35.7201 94.2638 35.8368 94.2452C35.8461 94.4459 35.8671 94.7235 35.8998 95.0782L35.9278 95.3792C35.9325 95.4025 35.9348 95.4329 35.9348 95.4702C35.9348 95.5169 35.9138 95.5402 35.8718 95.5402C35.8205 95.5402 35.7831 95.4819 35.7598 95.3652C35.6711 94.9452 35.5265 94.6792 35.3258 94.5672C35.1765 94.4832 34.7845 94.4412 34.1498 94.4412H33.5758V96.4922H33.7438C34.2665 96.4922 34.5838 96.4525 34.6958 96.3732C34.8125 96.2939 34.8918 96.0629 34.9338 95.6802C34.9431 95.5822 34.9688 95.5332 35.0108 95.5332C35.0621 95.5332 35.0878 95.5752 35.0878 95.6592C35.0878 95.7432 35.0831 95.8669 35.0738 96.0302C35.0645 96.1935 35.0598 96.3172 35.0598 96.4012C35.0598 96.9005 35.0691 97.2435 35.0878 97.4302C35.0925 97.4769 35.0948 97.5165 35.0948 97.5492C35.0948 97.6099 35.0691 97.6402 35.0178 97.6402C34.9851 97.6402 34.9618 97.6215 34.9478 97.5842C34.9385 97.5422 34.9198 97.4115 34.8918 97.1922C34.8545 96.9169 34.7401 96.7465 34.5488 96.6812C34.4648 96.6532 34.2455 96.6392 33.8908 96.6392H33.5758V98.9912C34.6025 98.9912 35.2045 98.9702 35.3818 98.9282C35.6898 98.8582 35.8648 98.5595 35.9068 98.0322C35.9161 97.9155 35.9465 97.8572 35.9978 97.8572C36.0445 97.8572 36.0678 97.9062 36.0678 98.0042ZM39.491 97.7732C39.491 98.1745 39.337 98.5175 39.029 98.8022C38.7257 99.0822 38.3593 99.2222 37.93 99.2222C37.678 99.2222 37.377 99.1452 37.027 98.9912C36.9337 98.9492 36.8637 98.9282 36.817 98.9282C36.761 98.9282 36.726 98.9959 36.712 99.1312C36.7073 99.2012 36.677 99.2362 36.621 99.2362C36.5743 99.2362 36.551 99.2082 36.551 99.1522C36.551 99.1149 36.5533 99.0869 36.558 99.0682C36.5953 98.7835 36.614 98.5199 36.614 98.2772C36.614 98.2305 36.6093 98.0999 36.6 97.8852C36.5953 97.8572 36.593 97.8199 36.593 97.7732C36.593 97.7032 36.621 97.6682 36.677 97.6682C36.7237 97.6682 36.7563 97.7242 36.775 97.8362C36.8963 98.6669 37.2907 99.0822 37.958 99.0822C38.2427 99.0822 38.462 99.0029 38.616 98.8442C38.7747 98.6809 38.854 98.4522 38.854 98.1582C38.854 97.8969 38.777 97.6752 38.623 97.4932C38.4737 97.3065 38.2147 97.1222 37.846 96.9402C37.4027 96.7209 37.0947 96.5085 36.922 96.3032C36.7493 96.0979 36.663 95.8435 36.663 95.5402C36.663 95.1529 36.7867 94.8332 37.034 94.5812C37.286 94.3292 37.6033 94.2032 37.986 94.2032C38.1447 94.2032 38.364 94.2568 38.644 94.3642C38.742 94.4015 38.8143 94.4202 38.861 94.4202C38.9123 94.4202 38.945 94.4109 38.959 94.3922C38.9777 94.3735 38.994 94.3245 39.008 94.2452C39.0173 94.1985 39.043 94.1752 39.085 94.1752C39.1317 94.1752 39.155 94.2032 39.155 94.2592C39.155 94.2965 39.1527 94.3245 39.148 94.3432C39.134 94.4552 39.127 94.5905 39.127 94.7492C39.127 94.9732 39.1387 95.1505 39.162 95.2812L39.169 95.3932C39.1737 95.4445 39.1527 95.4702 39.106 95.4702C39.0547 95.4702 39.0197 95.4165 39.001 95.3092C38.9497 95.0339 38.8283 94.8052 38.637 94.6232C38.4457 94.4365 38.231 94.3432 37.993 94.3432C37.7597 94.3432 37.573 94.4178 37.433 94.5672C37.2977 94.7165 37.23 94.9195 37.23 95.1762C37.23 95.4748 37.3303 95.7152 37.531 95.8972C37.643 95.9999 37.8857 96.1445 38.259 96.3312C38.6977 96.5505 39.0127 96.7745 39.204 97.0032C39.3953 97.2272 39.491 97.4839 39.491 97.7732ZM43.6913 95.5192C43.6913 95.5799 43.6633 95.6102 43.6073 95.6102C43.5513 95.6102 43.5117 95.5495 43.4883 95.4282C43.479 95.3442 43.4697 95.2602 43.4603 95.1762C43.4277 95.0082 43.374 94.8658 43.2993 94.7492C43.2013 94.5952 43.0403 94.4972 42.8163 94.4552C42.6717 94.4272 42.555 94.4155 42.4663 94.4202C42.247 94.4295 42.114 94.4365 42.0673 94.4412V98.6622C42.0673 98.8302 42.1117 98.9352 42.2003 98.9772C42.247 99.0005 42.3777 99.0145 42.5923 99.0192C42.6483 99.0239 42.6763 99.0449 42.6763 99.0822C42.6763 99.1242 42.639 99.1452 42.5643 99.1452C42.527 99.1452 42.4943 99.1429 42.4663 99.1382C42.1863 99.1289 41.988 99.1242 41.8713 99.1242C41.7173 99.1242 41.5727 99.1265 41.4373 99.1312C41.302 99.1359 41.1293 99.1382 40.9193 99.1382C40.812 99.1382 40.7583 99.1195 40.7583 99.0822C40.7583 99.0402 40.8587 99.0169 41.0593 99.0122C41.204 99.0122 41.2973 98.9819 41.3393 98.9212C41.3627 98.8839 41.3743 98.7882 41.3743 98.6342V94.4412C40.9123 94.4459 40.6253 94.4692 40.5133 94.5112C40.2193 94.6185 40.0467 94.9055 39.9953 95.3722C39.9813 95.5122 39.9487 95.5822 39.8973 95.5822C39.8413 95.5822 39.8133 95.5332 39.8133 95.4352C39.8133 95.3839 39.8157 95.3325 39.8203 95.2812L39.8343 95.1202C39.8483 94.9055 39.8693 94.6232 39.8973 94.2732H40.2123L41.6403 94.2942C41.8083 94.2988 42.0697 94.2965 42.4243 94.2872L43.5863 94.2662C43.5957 94.5275 43.626 94.9148 43.6773 95.4282C43.6773 95.4422 43.6797 95.4609 43.6843 95.4842C43.689 95.5029 43.6913 95.5145 43.6913 95.5192ZM45.0699 98.8092C45.0699 98.9119 45.0326 99.0005 44.9579 99.0752C44.8879 99.1452 44.8016 99.1802 44.6989 99.1802C44.5916 99.1802 44.5006 99.1452 44.4259 99.0752C44.3559 99.0005 44.3209 98.9095 44.3209 98.8022C44.3209 98.6995 44.3559 98.6132 44.4259 98.5432C44.5006 98.4685 44.5916 98.4312 44.6989 98.4312C44.8016 98.4312 44.8879 98.4685 44.9579 98.5432C45.0326 98.6132 45.0699 98.7019 45.0699 98.8092ZM50.3573 97.8222C50.3573 97.8362 50.3526 97.8735 50.3433 97.9342C50.3199 98.0882 50.2826 98.4685 50.2313 99.0752L50.2243 99.1592C49.7436 99.1359 49.1953 99.1242 48.5793 99.1242C48.2479 99.1242 47.9376 99.1289 47.6483 99.1382C47.3589 99.1475 47.2329 99.1522 47.2703 99.1522C47.1443 99.1522 47.0813 99.1289 47.0813 99.0822C47.0813 99.0449 47.2026 98.9282 47.4453 98.7322C48.0286 98.2562 48.4439 97.8689 48.6913 97.5702C49.1206 97.0522 49.3353 96.4432 49.3353 95.7432C49.3353 95.2719 49.2373 94.9149 49.0413 94.6722C48.8919 94.4855 48.6819 94.3922 48.4113 94.3922C48.1453 94.3922 47.9353 94.4739 47.7812 94.6372C47.6599 94.7632 47.5993 94.8892 47.5993 95.0152C47.5993 95.0945 47.6623 95.1365 47.7883 95.1412C48.1149 95.1552 48.2783 95.2975 48.2783 95.5682C48.2783 95.8249 48.1429 95.9532 47.8723 95.9532C47.6996 95.9532 47.5619 95.8995 47.4593 95.7922C47.3566 95.6849 47.3053 95.5379 47.3053 95.3512C47.3053 95.0059 47.4266 94.7282 47.6693 94.5182C47.9119 94.3082 48.2316 94.2032 48.6283 94.2032C49.0249 94.2032 49.3539 94.3292 49.6153 94.5812C49.9186 94.8752 50.0703 95.2579 50.0703 95.7292C50.0703 96.2472 49.8976 96.7255 49.5523 97.1642C49.2069 97.5982 48.6259 98.0719 47.8093 98.5852C48.1173 98.5759 48.5046 98.5712 48.9713 98.5712C49.3586 98.5712 49.6036 98.5665 49.7063 98.5572C49.8089 98.5432 49.8999 98.5129 49.9793 98.4662C50.0446 98.4242 50.1006 98.2679 50.1473 97.9972C50.1799 97.8105 50.2266 97.7172 50.2873 97.7172C50.3339 97.7172 50.3573 97.7522 50.3573 97.8222ZM54.1247 96.7932C54.1247 97.2085 54.0617 97.6005 53.9357 97.9692C53.8143 98.3379 53.6463 98.6342 53.4317 98.8582C53.203 99.1009 52.9113 99.2222 52.5567 99.2222C52.0713 99.2222 51.67 98.9842 51.3527 98.5082C51.04 98.0322 50.8837 97.4232 50.8837 96.6812C50.8837 95.8225 51.1053 95.1459 51.5487 94.6512C51.8147 94.3525 52.1413 94.2032 52.5287 94.2032C52.986 94.2032 53.35 94.4108 53.6207 94.8262C53.9567 95.3395 54.1247 95.9952 54.1247 96.7932ZM53.3687 96.5412C53.3687 95.8459 53.2917 95.2718 53.1377 94.8192C53.021 94.4738 52.8157 94.3012 52.5217 94.3012C51.9337 94.3012 51.6397 95.0829 51.6397 96.6462C51.6397 98.2842 51.95 99.1032 52.5707 99.1032C52.86 99.1032 53.0677 98.8652 53.1937 98.3892C53.3103 97.9552 53.3687 97.3392 53.3687 96.5412ZM57.8221 97.8222C57.8221 97.8362 57.8174 97.8735 57.8081 97.9342C57.7848 98.0882 57.7474 98.4685 57.6961 99.0752L57.6891 99.1592C57.2084 99.1359 56.6601 99.1242 56.0441 99.1242C55.7128 99.1242 55.4024 99.1289 55.1131 99.1382C54.8238 99.1475 54.6978 99.1522 54.7351 99.1522C54.6091 99.1522 54.5461 99.1289 54.5461 99.0822C54.5461 99.0449 54.6674 98.9282 54.9101 98.7322C55.4934 98.2562 55.9088 97.8689 56.1561 97.5702C56.5854 97.0522 56.8001 96.4432 56.8001 95.7432C56.8001 95.2719 56.7021 94.9149 56.5061 94.6722C56.3568 94.4855 56.1468 94.3922 55.8761 94.3922C55.6101 94.3922 55.4001 94.4739 55.2461 94.6372C55.1248 94.7632 55.0641 94.8892 55.0641 95.0152C55.0641 95.0945 55.1271 95.1365 55.2531 95.1412C55.5798 95.1552 55.7431 95.2975 55.7431 95.5682C55.7431 95.8249 55.6078 95.9532 55.3371 95.9532C55.1644 95.9532 55.0268 95.8995 54.9241 95.7922C54.8214 95.6849 54.7701 95.5379 54.7701 95.3512C54.7701 95.0059 54.8914 94.7282 55.1341 94.5182C55.3768 94.3082 55.6964 94.2032 56.0931 94.2032C56.4898 94.2032 56.8188 94.3292 57.0801 94.5812C57.3834 94.8752 57.5351 95.2579 57.5351 95.7292C57.5351 96.2472 57.3624 96.7255 57.0171 97.1642C56.6718 97.5982 56.0908 98.0719 55.2741 98.5852C55.5821 98.5759 55.9694 98.5712 56.4361 98.5712C56.8234 98.5712 57.0684 98.5665 57.1711 98.5572C57.2738 98.5432 57.3648 98.5129 57.4441 98.4662C57.5094 98.4242 57.5654 98.2679 57.6121 97.9972C57.6448 97.8105 57.6914 97.7172 57.7521 97.7172C57.7988 97.7172 57.8221 97.7522 57.8221 97.8222ZM61.5545 97.8222C61.5545 97.8362 61.5498 97.8735 61.5405 97.9342C61.5172 98.0882 61.4798 98.4685 61.4285 99.0752L61.4215 99.1592C60.9408 99.1359 60.3925 99.1242 59.7765 99.1242C59.4452 99.1242 59.1348 99.1289 58.8455 99.1382C58.5562 99.1475 58.4302 99.1522 58.4675 99.1522C58.3415 99.1522 58.2785 99.1289 58.2785 99.0822C58.2785 99.0449 58.3998 98.9282 58.6425 98.7322C59.2258 98.2562 59.6412 97.8689 59.8885 97.5702C60.3178 97.0522 60.5325 96.4432 60.5325 95.7432C60.5325 95.2719 60.4345 94.9149 60.2385 94.6722C60.0892 94.4855 59.8792 94.3922 59.6085 94.3922C59.3425 94.3922 59.1325 94.4739 58.9785 94.6372C58.8572 94.7632 58.7965 94.8892 58.7965 95.0152C58.7965 95.0945 58.8595 95.1365 58.9855 95.1412C59.3122 95.1552 59.4755 95.2975 59.4755 95.5682C59.4755 95.8249 59.3402 95.9532 59.0695 95.9532C58.8968 95.9532 58.7592 95.8995 58.6565 95.7922C58.5538 95.6849 58.5025 95.5379 58.5025 95.3512C58.5025 95.0059 58.6238 94.7282 58.8665 94.5182C59.1092 94.3082 59.4288 94.2032 59.8255 94.2032C60.2222 94.2032 60.5512 94.3292 60.8125 94.5812C61.1158 94.8752 61.2675 95.2579 61.2675 95.7292C61.2675 96.2472 61.0948 96.7255 60.7495 97.1642C60.4042 97.5982 59.8232 98.0719 59.0065 98.5852C59.3145 98.5759 59.7018 98.5712 60.1685 98.5712C60.5558 98.5712 60.8008 98.5665 60.9035 98.5572C61.0062 98.5432 61.0972 98.5129 61.1765 98.4662C61.2418 98.4242 61.2978 98.2679 61.3445 97.9972C61.3772 97.8105 61.4238 97.7172 61.4845 97.7172C61.5312 97.7172 61.5545 97.7522 61.5545 97.8222Z" fill="white"/>
<path d="M82.5592 103.632C82.591 103.785 82.7235 103.876 82.8613 103.842C82.8825 103.836 82.9037 103.831 82.9196 103.814C82.9355 103.808 82.9514 103.797 82.962 103.779C82.9939 103.751 83.0151 103.723 83.0257 103.683C83.0098 103.859 82.9461 104.024 82.8719 104.166L82.2358 103.95L82.1987 104.041C82.3896 104.132 82.5857 104.222 82.7765 104.308C82.5645 104.603 82.2411 104.785 81.8701 104.79H81.7323L0.270337 103.791C0.121916 103.785 0 103.649 0 103.484C0 103.314 0.121916 103.183 0.270337 103.183L81.7641 102.172H81.8436C82.2676 102.167 82.6493 102.417 82.856 102.786C82.6175 102.888 82.3896 103.007 82.1563 103.126L82.1934 103.217C82.4373 103.121 82.6864 103.03 82.9302 102.945C82.9992 103.104 83.0363 103.274 83.0416 103.467V103.501C83.0098 103.348 82.8825 103.257 82.7447 103.291C82.6175 103.337 82.5327 103.484 82.5592 103.632Z" fill="white"/>
<path d="M95.5091 102.723C94.7616 102.206 93.9559 101.9 93.1078 101.724C91.9363 101.514 90.7172 101.372 89.4874 101.462C88.2523 101.548 87.0226 101.786 85.8034 102.087C84.8387 102.32 83.8739 102.609 82.9304 102.956C82.6813 103.041 82.4321 103.132 82.1936 103.228L82.1565 103.138C82.3844 103.018 82.6176 102.905 82.8562 102.797C84.9447 101.78 87.1286 101.031 89.4185 100.684C90.6854 100.503 92.0159 100.384 93.3039 100.77C94.0408 100.991 94.7722 101.377 95.3606 101.917C94.6662 99.191 92.1484 97.4194 89.6358 98.0553C88.7983 98.2711 87.6905 98.6857 86.6091 99.2535C86.0366 99.634 85.4588 100.02 84.8599 100.378C84.4835 100.605 84.0913 100.821 83.6725 100.98C83.4605 101.059 83.2325 101.116 82.9993 101.133C82.7608 101.144 82.5169 101.048 82.3261 100.934C82.2943 100.917 82.2678 100.895 82.236 100.878H82.2201C81.971 100.912 81.7801 101.127 81.7801 101.4L81.7695 102.184L81.7377 104.801L81.7324 105.562C81.7324 105.818 81.8967 106.045 82.13 106.09L82.5328 106.176L82.7979 106.232C82.7979 106.232 82.7979 106.232 82.8032 106.232L83.1212 106.3C83.2749 106.329 83.8792 106.573 84.3987 106.743C84.404 106.743 84.4146 106.749 84.4199 106.749C84.5948 106.794 84.7644 106.846 84.897 106.874C84.897 106.874 84.897 106.88 84.9023 106.88C85.3422 107.152 85.8193 107.402 86.307 107.624H86.3123C88.2523 108.481 90.4733 108.884 91.7985 108.56C93.5107 108.129 94.8041 106.732 95.3023 105C94.7404 105.505 94.0673 105.875 93.3835 106.102C92.1007 106.528 90.7702 106.442 89.5033 106.3C87.1604 106.011 84.9076 105.29 82.7714 104.319C82.5752 104.234 82.3791 104.143 82.1936 104.052L82.2307 103.961L82.8668 104.177C83.8474 104.517 84.8546 104.784 85.8617 105C87.0862 105.267 88.3212 105.471 89.551 105.517C90.7861 105.574 92 105.398 93.1608 105.159C93.9824 104.96 94.7616 104.642 95.4772 104.131V104.114C95.5568 103.666 95.5621 103.194 95.5091 102.723ZM82.7396 101.315C82.8774 101.281 83.0099 101.372 83.0417 101.525C83.0735 101.678 82.9887 101.826 82.8509 101.86C82.7131 101.888 82.5858 101.803 82.5487 101.65C82.5222 101.496 82.607 101.349 82.7396 101.315ZM83.0576 105.199C83.0894 105.352 83.0046 105.5 82.8668 105.54C82.729 105.574 82.5964 105.483 82.5646 105.324C82.5328 105.182 82.6176 105.023 82.7555 104.994C82.8933 104.96 83.0311 105.046 83.0576 105.199ZM83.0364 103.677C83.0364 103.683 83.0364 103.683 83.0311 103.683C83.0205 103.722 82.994 103.757 82.9675 103.779C82.9569 103.791 82.9463 103.808 82.9251 103.813C82.9092 103.825 82.888 103.83 82.8668 103.842C82.729 103.876 82.5964 103.785 82.5646 103.632C82.5328 103.478 82.6176 103.336 82.7555 103.297C82.8933 103.262 83.0205 103.353 83.0523 103.507C83.0576 103.558 83.0523 103.626 83.0364 103.677Z" fill="white"/>
<path d="M96.4329 103.444C96.3428 103.66 96.2368 103.864 96.1202 104.052C95.8975 104.404 95.6219 104.728 95.3145 105C95.3622 104.841 95.4046 104.682 95.4311 104.518C95.4629 104.387 95.4788 104.256 95.4894 104.126V104.114C95.6855 103.989 95.8657 103.842 96.0513 103.671C96.152 103.581 96.2527 103.49 96.3534 103.382L96.4329 103.444Z" fill="white"/>
<path d="M82.6344 108.771C82.3323 108.441 82.0514 108.061 81.9135 107.59C81.8499 107.357 81.8234 107.084 81.9135 106.834C81.9983 106.585 82.1839 106.392 82.38 106.267C82.5655 106.136 82.8147 106.034 83.0585 106.045C83.297 106.057 83.5197 106.119 83.7317 106.193C84.1557 106.346 84.5427 106.562 84.9297 106.783C86.4563 107.664 87.8716 108.72 89.4459 109.305C90.2251 109.594 91.0414 109.77 91.8312 109.657C92.6264 109.566 93.3579 109.146 93.9674 108.555C94.5823 107.959 95.07 107.187 95.4835 106.38C95.9075 105.574 96.2415 104.705 96.5701 103.831C96.1619 105.653 95.5471 107.51 94.2908 108.935C93.6653 109.64 92.8172 110.145 91.9107 110.287C91.0043 110.429 90.0926 110.247 89.2604 109.929C87.5906 109.282 86.1594 108.186 84.7229 107.198C84.3625 106.959 83.9967 106.727 83.6151 106.556C83.2281 106.392 82.8518 106.278 82.4966 106.505C82.3217 106.596 82.168 106.738 82.0832 106.925C81.9984 107.113 81.9984 107.34 82.0408 107.561C82.1362 107.993 82.3641 108.407 82.6344 108.771Z" fill="white"/>
<path d="M96.4061 103.337L96.3372 103.393C96.2471 103.303 96.1517 103.223 96.0616 103.138C95.8867 102.985 95.7064 102.843 95.5156 102.718C95.505 102.598 95.4838 102.491 95.4679 102.371V102.366C95.4573 102.297 95.4467 102.235 95.4308 102.178C95.4149 102.087 95.3884 102.002 95.3672 101.917C95.6269 102.144 95.8601 102.405 96.0563 102.701C96.1888 102.899 96.3107 103.115 96.4061 103.337Z" fill="white"/>
<path d="M96.4479 102.649H96.4002C96.098 101.888 95.78 101.139 95.3877 100.435C94.9584 99.634 94.4548 98.8845 93.8293 98.3053C93.2091 97.7317 92.4617 97.3342 91.6719 97.2775C90.8874 97.1923 90.0764 97.4024 89.3078 97.7147C88.3748 98.1008 87.4949 98.663 86.6097 99.2422C86.0372 99.6227 85.4594 100.009 84.8604 100.367C84.4841 100.594 84.0918 100.809 83.6731 100.968C83.461 101.048 83.2331 101.105 82.9999 101.122C82.7613 101.133 82.5175 101.037 82.3267 100.923C82.2949 100.906 82.2684 100.883 82.2366 100.866C82.0722 100.753 81.9185 100.611 81.8125 100.423C81.6906 100.202 81.6535 99.935 81.68 99.6908C81.733 99.1911 81.9556 98.7652 82.226 98.4018C82.0033 98.7936 81.8284 99.2479 81.8125 99.6965C81.7807 100.156 82.0563 100.537 82.4327 100.69C82.7931 100.889 83.1695 100.781 83.5564 100.616C83.9275 100.446 84.2932 100.213 84.6484 99.9634C86.0637 98.964 87.4578 97.8169 89.101 97.1071C89.9173 96.7664 90.8238 96.5449 91.7302 96.6472C92.6419 96.7607 93.506 97.2377 94.1421 97.9191C95.3559 99.2365 96.0079 100.94 96.4479 102.649Z" fill="white"/>
<path d="M96.5282 102.951C96.4858 102.855 96.454 102.746 96.4062 102.649H96.454C96.4752 102.752 96.5017 102.855 96.5282 102.951Z" fill="white"/>
<path d="M102.581 103.393L102.576 103.387C100.689 101.275 99.3478 102.774 99.3478 102.774C99.3849 102.519 99.3372 102.269 99.2471 102.047C99.0192 101.48 98.4838 101.105 97.9219 101.11C97.0844 101.116 97.0685 102.059 97.0685 102.059C97.2169 102.025 98.2559 102.008 97.9802 102.621C97.7629 103.109 97.1003 102.734 96.7982 102.666C96.7028 102.649 96.5649 102.638 96.4483 102.655H96.4006C96.2416 102.666 96.1038 102.695 96.0508 102.706C96.0349 102.717 96.0296 102.717 96.0296 102.723L96.0508 103.03V103.705L96.0137 104.012C96.0137 104.018 96.0561 104.029 96.1144 104.052C96.1992 104.063 96.3264 104.086 96.4642 104.092C96.4748 104.097 96.4854 104.097 96.5013 104.097C96.6074 104.097 96.7134 104.092 96.7982 104.08C97.1003 104.018 97.7629 103.637 97.9749 104.131C98.2506 104.745 97.2063 104.722 97.0632 104.682C97.0632 104.682 97.0632 105.625 97.9007 105.642C98.4679 105.653 98.998 105.273 99.2365 104.705C99.3213 104.495 99.3796 104.245 99.3425 103.989C99.3478 103.995 100.678 105.5 102.581 103.393ZM99.9945 103.7C99.809 103.745 99.6341 103.62 99.5917 103.416C99.5493 103.217 99.6606 103.018 99.8408 102.973C100.026 102.928 100.201 103.052 100.244 103.257C100.281 103.45 100.169 103.654 99.9945 103.7Z" fill="white"/>
<path d="M102.586 103.388V103.393H102.58V103.388H102.586Z" fill="white"/>
</svg>
