<?xml version="1.0" standalone="no"?>
<!DOCTYPE svg PUBLIC "-//W3C//DTD SVG 20010904//EN"
 "http://www.w3.org/TR/2001/REC-SVG-20010904/DTD/svg10.dtd">
<svg version="1.0" xmlns="http://www.w3.org/2000/svg"
 width="110.000000pt" height="110.000000pt" viewBox="0 0 110.000000 110.000000"
 preserveAspectRatio="xMidYMid meet">
<metadata>
Created by potrace 1.14, written by Peter Selinger 2001-2017
</metadata>
<g transform="translate(0.000000,110.000000) scale(0.100000,-0.100000)"
fill="#000000" stroke="none">
<path d="M101 1076 c-9 -10 -7 -17 5 -27 14 -11 18 -10 30 5 23 32 -10 52 -35
22z m29 0 c0 -2 -7 -7 -16 -10 -8 -3 -12 -2 -9 4 6 10 25 14 25 6z"/>
<path d="M870 1070 c0 -26 25 -36 45 -20 13 11 13 14 -2 26 -26 19 -43 17 -43
-6z"/>
<path d="M370 974 c-74 -41 -136 -77 -139 -80 -7 -7 103 -343 112 -344 5 0 23
15 41 33 24 24 40 59 65 137 18 58 38 123 45 145 l13 40 33 -105 c43 -139 83
-225 110 -240 12 -6 23 -10 25 -8 8 8 98 305 99 326 1 20 -19 35 -132 98 -73
40 -134 74 -135 74 -1 0 -63 -34 -137 -76z"/>
<path d="M134 995 c3 -11 8 -40 10 -65 11 -98 17 -146 21 -170 2 -14 7 -52 11
-84 3 -33 8 -67 9 -75 2 -9 4 -33 4 -53 1 -33 4 -38 25 -38 34 0 76 17 76 31
0 20 -143 454 -153 464 -6 6 -7 3 -3 -10z"/>
<path d="M801 783 c-41 -126 -74 -235 -75 -243 -1 -10 15 -19 44 -26 25 -6 46
-11 46 -10 2 1 11 69 19 144 3 26 10 76 15 112 22 148 33 250 28 250 -2 0 -37
-102 -77 -227z"/>
<path d="M499 760 c-1 -11 -2 -23 -3 -27 -1 -5 -6 -24 -10 -43 -5 -19 -19 -58
-33 -87 -28 -60 -86 -104 -164 -124 -27 -7 -49 -15 -49 -18 0 -3 124 -6 275
-7 151 0 275 1 275 2 0 1 -31 11 -69 24 -118 38 -162 89 -196 228 -18 74 -24
87 -26 52z"/>
<path d="M480 423 c-21 -8 -50 -34 -50 -46 0 -5 8 0 18 12 9 11 35 25 57 30
26 6 31 9 15 9 -14 0 -32 -2 -40 -5z"/>
<path d="M176 397 c3 -10 9 -15 12 -12 3 3 0 11 -7 18 -10 9 -11 8 -5 -6z"/>
<path d="M211 401 c19 -12 127 -27 117 -16 -4 4 -18 9 -30 11 -13 1 -41 5 -63
9 -28 4 -35 3 -24 -4z"/>
<path d="M555 371 c-51 -31 -75 -65 -77 -105 -1 -20 3 -41 8 -46 7 -7 9 2 6
23 -4 39 28 91 77 124 41 27 29 31 -14 4z"/>
<path d="M180 351 c0 -11 -12 -34 -26 -53 l-26 -33 31 33 c26 27 42 72 26 72
-3 0 -5 -9 -5 -19z"/>
<path d="M227 338 c-13 -18 -32 -46 -42 -63 -10 -16 -30 -40 -44 -53 l-26 -24
32 16 c20 10 41 33 54 59 12 23 30 54 41 70 27 38 14 34 -15 -5z"/>
<path d="M242 291 c-23 -43 -42 -82 -42 -87 1 -13 40 39 40 53 0 7 8 17 18 22
9 6 13 11 9 11 -5 0 0 16 12 35 11 19 16 37 12 39 -4 3 -26 -30 -49 -73z"/>
<path d="M907 363 c-48 -80 -77 -147 -68 -156 8 -8 11 -7 11 4 0 8 16 45 36
82 20 38 34 71 31 73 -3 3 -7 2 -10 -3z"/>
<path d="M776 303 c-6 -14 -5 -15 5 -6 7 7 10 15 7 18 -3 3 -9 -2 -12 -12z"/>
<path d="M809 275 c-22 -41 -25 -43 -31 -23 -6 23 -6 23 -7 1 -1 -12 -8 -29
-17 -37 -17 -17 -8 -21 16 -6 9 6 17 5 22 -3 5 -8 8 -7 8 4 0 9 12 37 26 63
14 25 21 46 16 46 -5 0 -20 -20 -33 -45z"/>
<path d="M370 278 c0 -9 -6 -19 -12 -21 -10 -4 -10 -6 0 -6 14 -1 28 26 18 36
-3 4 -6 -1 -6 -9z"/>
<path d="M950 278 c0 -9 -6 -19 -12 -21 -10 -4 -10 -6 0 -6 14 -1 28 26 18 36
-3 4 -6 -1 -6 -9z"/>
<path d="M266 251 c-13 -25 -15 -36 -6 -45 6 -6 10 -6 9 -1 -2 6 2 20 10 33 7
13 10 28 8 35 -2 7 -12 -3 -21 -22z"/>
<path d="M322 259 c-13 -13 -18 -28 -14 -42 6 -21 6 -21 10 -2 2 10 11 29 19
42 19 29 10 30 -15 2z"/>
<path d="M650 265 c-8 -10 -16 -12 -19 -6 -4 6 -13 0 -20 -12 -13 -20 -13 -21
2 -8 15 12 17 11 17 -7 0 -12 5 -24 12 -28 7 -4 8 -3 4 5 -4 6 0 23 9 37 19
29 15 43 -5 19z"/>
<path d="M692 255 c-20 -44 -13 -62 8 -22 22 41 24 47 12 47 -5 0 -14 -11 -20
-25z"/>
<path d="M908 268 c-18 -15 -30 -46 -20 -52 4 -2 15 11 24 30 19 38 19 40 -4
22z"/>
<path d="M540 250 c0 -5 5 -10 10 -10 6 0 10 5 10 10 0 6 -4 10 -10 10 -5 0
-10 -4 -10 -10z"/>
<path d="M726 244 c-9 -24 -7 -27 9 -10 17 17 19 26 6 26 -5 0 -12 -7 -15 -16z"/>
<path d="M45 240 c-3 -5 1 -10 9 -10 9 0 16 5 16 10 0 6 -4 10 -9 10 -6 0 -13
-4 -16 -10z"/>
<path d="M370 143 c0 -18 2 -33 4 -33 9 0 13 39 5 51 -6 10 -9 4 -9 -18z"/>
<path d="M596 162 c-3 -5 1 -9 9 -9 8 0 12 4 9 9 -3 4 -7 8 -9 8 -2 0 -6 -4
-9 -8z"/>
<path d="M453 145 c0 -8 4 -12 9 -9 5 3 6 10 3 15 -9 13 -12 11 -12 -6z"/>
<path d="M552 140 c0 -14 2 -19 5 -12 2 6 2 18 0 25 -3 6 -5 1 -5 -13z"/>
<path d="M419 141 c8 -5 10 -14 6 -22 -6 -11 -5 -11 5 -2 14 12 6 33 -13 33
-8 0 -7 -3 2 -9z"/>
<path d="M930 131 c0 -6 -3 -10 -7 -9 -11 2 -63 -24 -63 -31 0 -6 -128 -8
-604 -10 -115 -1 -207 -3 -205 -5 2 -3 182 -7 400 -10 382 -5 397 -6 433 -26
20 -12 36 -18 36 -13 0 4 5 1 10 -7 7 -12 12 -12 22 -2 6 6 17 12 23 12 5 0 3
-5 -5 -11 -13 -9 -13 -10 0 -6 8 2 15 8 15 13 0 5 4 14 8 21 6 9 -1 9 -25 3
-17 -6 -27 -6 -22 -1 15 15 74 24 74 12 0 -8 7 -7 20 1 31 20 24 27 -25 26
-25 0 -49 2 -52 6 -4 3 1 6 10 6 22 0 22 16 0 24 -10 3 -24 9 -30 12 -7 3 -13
1 -13 -5z"/>
<path d="M595 120 c-3 -5 -1 -10 4 -10 6 0 11 5 11 10 0 6 -2 10 -4 10 -3 0
-8 -4 -11 -10z"/>
</g>
</svg>
